<?xml version="1.0" encoding="UTF-8"?>
<svg id="Capa_1" data-name="Capa 1" xmlns="http://www.w3.org/2000/svg" viewBox="0 0 295.82 90.65">
  <defs>
    <style>
      .cls-1 {
        fill: #b0dc2b;
      }

      .cls-1, .cls-2, .cls-3 {
        stroke-width: 0px;
      }

      .cls-2 {
        fill: #053c40;
      }

      .cls-3 {
        fill: #00b3ca;
      }
    </style>
  </defs>
  <path class="cls-1" d="m221.73,41.07c.32-.52.3-1.09.21-1.59-.35-1.87.05-3.72.2-5.56.07-.82.05-1.63.07-2.44.03-1.67,1.16-3.05,2.78-3.35,1.63-.3,2.87.48,3.52,2.21.06.15.12.29.15.45.1.49.32.48.63.16.2-.21.4-.42.62-.61,1.03-.92,2.49-1.11,3.75-.39.64.37,1.27.51,1.96.35,2.47-.57,5.46,2.14,4.67,4.74-.23.75.17,1.34.64,1.85,1.29,1.37,1.65,3.01,1.51,4.82-.01.16-.03.32-.01.47.02.21.14.35.36.34.24,0,.33-.18.3-.38-.14-.94.29-1.74.67-2.54.39-.82.05-1.72.29-2.56.06-.2,0-.44.09-.62.84-1.79.97-3.75,1.4-5.64.23-1,.88-1.79,1.34-2.67.62-1.18,1.02-2.48,1.84-3.56,1.12-1.47,2.93-2.04,4.48-1.45,1.62.62,2.41,2.19,1.98,3.89-.31,1.22-.9,2.3-1.55,3.36-.29.47-.39.81-.04,1.34.78,1.19.93,2.6.44,3.88-.61,1.59-.82,3.25-1.23,4.87-.19.76-.37,1.54-.61,2.29-.15.49-.02.67.48.68.6.02,1.13.24,1.58.64.31.28.67.38,1.09.37,1.12-.03,2.12.33,3,1.03.31.25.66.42,1.06.49.95.16,1.82.52,2.59,1.11.14.1.27.3.48.17.15-.1.09-.29.09-.44.01-1.33-.14-2.62-.7-3.84-.67-1.45-1.04-2.97-.99-4.58.08-2.45-.17-4.87-.57-7.29-.25-1.49-.13-3.02.9-4.36.54-.71.3-1.68.23-2.54-.08-.92-.3-1.81-.26-2.74.06-1.46.84-2.53,2.09-2.81,1.27-.29,2.44.28,3.11,1.58,1.45,2.81,2.69,5.69,3.25,8.85.23,1.3.89,2.52,1.35,3.78.03.07.07.16.12.2,2,1.41,1.98,3.58,2.1,5.68.05.94,0,1.9-.04,2.84-.02.54.12,1.01.36,1.5.51,1.02.84,2.13,1.56,3.06.17.22.28.5.59.39.64-.24,1.35-.25,1.95-.6.71-.41,1.43-.79,2.24-.97.9-.2,1.67-.61,2.31-1.27.05-.06.12-.1.19-.14,1.67-.81,3.11-1.94,4.46-3.2.86-.8,2.05-1.04,3.09-1.56.49-.25.98-.51,1.49-.72,1.89-.8,3.91.15,4.37,2.05.24.99-.09,1.87-.78,2.53-2.42,2.32-4.72,4.81-7.75,6.41-1.09.58-1.85,1.61-2.93,2.25-.77.46-1.62.75-2.38,1.23-.28.17-.51.36-.63.67-1.17,2.87-3.5,4.37-6.28,5.34-1.32.46-2.34,1.25-2.95,2.53-.61,1.27-1.61,2.18-2.77,2.97-1.46.99-2.87,2.05-4.32,3.06-.57.4-.99.87-1.1,1.57-.25,1.6-1.41,2.6-2.41,3.71-1.03,1.15-1.86,2.41-2.46,3.83-.27.64-.63,1.26-1.18,1.65-1.55,1.09-2.71,2.56-3.96,3.94-1.82,2-3.98,3.32-6.72,3.6-1.4.15-2.48.84-3.49,1.82-1.2,1.16-2.32,2.46-3.89,3.16-1.28.58-2.63.35-3.57-.56-.94-.91-1.17-2.26-.67-3.57.65-1.73,2.03-2.83,3.33-4.02,1.76-1.61,3.67-2.99,5.81-4.04.5-.25.81-.65.99-1.25-.91-.1-1.77-.28-2.37-1.04-.81-1.01-1.14-2.19-1.26-3.43-.06-.6-.21-1.19-.09-1.9-.52.34-.65.86-1.05,1.16-1.87,1.39-4.3.76-5.55-1.46-.38-.67-.67-1.37-.78-2.14-.15-1.02-.4-2-.86-2.94-.38-.77-.39-1.64-.32-2.48.07-.79-.12-1.44-.72-1.98-.82-.73-1.29-1.72-1.82-2.65-.13-.23-.25-.52-.55-.48-.28.04-.22.37-.32.58-.6,1.19-.55,2.48-.63,3.77-.13,2.1-1.51,3.55-3.3,3.57-2.36.03-3.58-1.61-3.42-3.86.08-1.12.25-2.21,0-3.36-.23-1.06.02-2.15.29-3.2.07-.27.23-.54-.08-.86-.5,1.01-.86,2.07-1.58,2.89-1.54,1.75-2.77,3.78-4.81,5.07-1.13.71-2.27,1.35-3.69,1.06-.27-.05-.51.06-.76.16-2.04.78-3.21.39-4.7-1.21-.69-.74-1.6-1.33-2.74-1.34-2,0-3.48-1.64-3.5-3.9-.02-1.63.04-3.26.06-4.89,0-.33,0-.68-.35-1.14-.22,1.48-.88,2.64-1.35,3.88-.18.48.1.97.32,1.42.46.92.88,1.83,1.05,2.87.15.92-.12,1.77-.15,2.66-.01.43,0,.8.28,1.09,1.67,1.77,1.75,3.85,1.18,6.04-.27,1.03-.17,1.95.5,2.83,1,1.32,1.37,2.86,1.44,4.51.03.75.24,1.5.39,2.25.42,2.07-1.31,3.87-3.3,3.45-.21-.04-.4-.12-.57-.24-.48-.33-.97-.55-1.59-.6-1.09-.09-2.08-1.26-2.18-2.49-.04-.5-.06-1.02.05-1.49.15-.64,0-1.02-.57-1.36-1.6-.94-2.26-2.43-2.28-4.23,0-.51-.16-.9-.52-1.25-1.04-.99-1.29-2.26-1.19-3.62.07-.92.17-1.84.47-2.72.2-.58.02-.99-.32-1.45-1.91-2.57-2.77-5.44-2.5-8.65.1-1.25.15-2.51-.39-3.73-.41-.92-.57-1.91-.53-2.93.01-.28.01-.57-.23-.83-.76.68-1.22,1.47-1.19,2.53.03.89,0,1.79-.04,2.69-.05,1.22-.28,2.41-.92,3.47-.89,1.47-1.21,3.07-1.15,4.76.02.66-.05,1.32-.03,1.96.04,1.44-1.16,2.88-2.36,3.22-1.36.38-2.88-.19-3.86-1.51-.91-1.23-1.21-2.67-1.34-4.15-.05-.54-.19-.85-.73-1.04-1.15-.4-1.86-1.28-2.2-2.42-.28-.93-.43-1.88-.23-2.87.15-.72.19-1.46-.2-2.16-.14-.24-.2-.56-.19-.84.05-1.44-.45-2.72-1.07-3.99-.68-1.39-.88-2.92-.96-4.45-.06-1.12-.68-1.78-1.54-2.32-.2-.12-.58-.35-.54.15.2,2.57-.81,4.97-1,7.48-.12,1.66-.36,3.29-.76,4.9-.36,1.46-.28,2.94-.1,4.4.23,1.87-.44,3.31-1.8,4.55-1.09.99-1.67,2.2-1.35,3.73.37,1.78.71,3.56.4,5.39-.22,1.29-1,2.38-1.24,3.65-.14.75-.34,1.49-.47,2.24-.22,1.2-.75,2.27-1.54,3.16-1.43,1.62-4.14.84-4.85-1.34-.48-1.48-.47-3.01-.41-4.53.03-.66.04-1.32.14-1.97.13-.87-.15-1.66-.41-2.46-.24-.73-.24-1.45-.05-2.18.51-1.98.58-3.89-.22-5.87-.91-2.26-.89-4.63-.15-6.96.36-1.13,1.03-2.09,1.8-2.95,1.66-1.86,1.73-4.04,1.44-6.31-.22-1.72-.5-3.43-.52-5.17-.03-2.12.53-4.12,1.26-6.07.7-1.88,1.01-3.87,1.6-5.77.44-1.41.39-2.86.61-4.28.27-1.75.89-3.35,1.99-4.74.99-1.26,2.44-1.43,3.63-.39.5.44.83.38,1.21-.13.64-.86,1.14-1.73,1.19-2.86.06-1.29.66-2.43,1.36-3.49.47-.7.96-1.39,1.46-2.06,1.11-1.49,2.43-1.92,3.89-1.28,1.45.63,2.26,2.16,1.95,3.84-.27,1.51-.79,2.95-1.31,4.38-.41,1.11-.81,2.22-.84,3.43-.01.6.15,1.08.57,1.49,1.02,1.02,1.16,2.28,1.09,3.64-.07,1.32-.32,2.67.51,3.91.36.54.45,1.23.41,1.91-.03.42-.05.85.02,1.26.08.53.45,1,.9,1.1.43.1.54-.5.67-.83.39-1.06,1-1.96,1.76-2.78.39-.43.63-.92.81-1.5.97-3.09,1.4-6.31,2.41-9.38.44-1.35,1.08-2.57,1.99-3.64,1.27-1.48,1.94-3.17,2-5.11.05-1.59.71-2.88,1.76-4.03.8-.88,1.49-1.81,1.95-2.94.36-.88,1-1.61,1.8-2.15.89-.6,1.85-.89,2.88-.38,1.18.59,1.78,1.59,1.93,2.88.16,1.34-.35,2.53-.85,3.73-.61,1.45-1.22,2.9-1.84,4.35-.74,1.72-.79,3.57-1.05,5.39-.31,2.19.5,4.15.95,6.19.45,2.05.66,4.11.59,6.19-.04,1.24.18,2.4.67,3.53.46,1.08.67,2.21.6,3.39-.02.42,0,.84.14,1.25.2.61.26,1.25.14,1.87-.13.67-.04,1.18.47,1.7.51.52.66,1.24.67,1.98,0,.21,0,.5.23.53.3.04.26-.29.27-.47.11-2.21,1.27-3.79,3.02-5.01,1.28-.89,2.01-2.28,3.03-3.41,2.19-2.42,5.08-3.04,8.1-1.79,1.95.81,3.51,2.04,4.56,3.84.73,1.25.95,2.72,1.34,4.1.05.18.09.37.13.56Zm-21.3,37.75c.09.2.12.3.18.39.34.56.68,1.1,1.49.77.77-.32.62-.93.5-1.54-.14-.7-.4-1.4-.37-2.09.06-1.63-.62-2.95-1.48-4.24-.59-.88-.83-1.86-.53-2.94.14-.51.22-1.03.31-1.55.2-1.21.18-2.41-.73-3.34-.86-.88-1.14-1.88-.91-3.03.31-1.52,0-2.91-.75-4.25-.69-1.22-.74-2.46-.06-3.76.94-1.79,1.36-3.72.84-5.73-.19-.74-.18-1.45-.01-2.18.14-.59.25-1.19.34-1.78.11-.7.07-1.39-.48-1.91-.74-.7-.86-1.53-.65-2.46.09-.41.17-.85-.02-1.24-.22-.45-.25-.91-.2-1.39.11-1.21-.06-2.38-.57-3.47-.6-1.28-.77-2.6-.71-3.99.13-2.77-.4-5.45-1.13-8.1-.88-3.19-.53-6.35.41-9.41.71-2.3,1.78-4.5,2.7-6.74.27-.66.34-1.33.09-2-.38-1.02-1.22-1.23-2.06-.54-.45.37-.84.82-1.05,1.36-.48,1.25-1.26,2.31-2.17,3.27-.88.93-1.33,1.99-1.39,3.25-.09,2.09-.78,3.95-2.14,5.57-.59.7-1.14,1.44-1.5,2.31-1.32,3.18-1.61,6.63-2.65,9.89-.31.97-.59,1.89-1.31,2.64-.77.8-1.49,1.66-1.84,2.73-.88,2.72-1.5,5.49-1.3,8.38.11,1.62-.17,3.21-.37,4.8-.07.6-.18,1.22-.58,1.82-.08-.61.09-1.19-.24-1.69-.4-.61-.51-1.31-.59-2.03-.33-3.07-.66-6.13-.33-9.22.07-.67-.06-1.39-.65-1.78-.7-.47-.73-1.05-.65-1.76.13-1.12.07-2.21-.73-3.13-.27-.31-.33-.71-.31-1.12.06-1.1.14-2.21.19-3.31.04-.8-.17-1.55-.84-2.03-.85-.62-.91-1.43-.85-2.37.13-2.03.85-3.9,1.5-5.79.33-.97.69-1.94.68-2.99,0-.67-.37-1.13-1-1.38-.62-.24-1.07.04-1.45.5-.13.16-.25.34-.38.5-1.28,1.63-2.38,3.33-2.46,5.52-.02.62-.32,1.21-.79,1.68-.92.92-1.5,2.02-1.66,3.33-.03.27-.02.57-.3.75-.66-1.96-.79-2.02-2.09-1.07,0-.17-.02-.32,0-.47.11-.54.22-1.12-.44-1.34-.64-.22-1.03.24-1.32.74-.52.89-.91,1.83-1.14,2.84-.23,1.01-.12,2.07-.33,3.05-.56,2.62-1.13,5.25-2.04,7.78-.84,2.33-1.42,4.66-1.15,7.18.16,1.47.53,2.9.55,4.38.04,2.56-.29,4.97-2.16,6.97-.75.8-1.31,1.77-1.5,2.91-.3,1.86-.2,3.67.54,5.42.61,1.47.79,2.99.46,4.56-.32,1.52-.67,3.04.14,4.54.18.33.07.72.05,1.09-.09,1.42-.25,2.83-.18,4.26.04.71.1,1.42.34,2.1.18.5.52.87,1.08.91.55.04.87-.31,1.09-.76.24-.49.58-.94.68-1.5.32-1.79.74-3.54,1.47-5.22.77-1.76.37-3.6-.07-5.36-.57-2.29.24-4.14,1.81-5.62,1.14-1.08,1.49-2.23,1.25-3.67-.22-1.37-.2-2.72.11-4.08.24-1.05.49-2.11.59-3.18.21-2.2.52-4.39,1.04-6.54.31-1.28.22-2.56-.15-3.83-.3-1.02-.43-2.07-.27-3.13.25-1.72.81-3.37,1.33-5.03.08-.26.21-.55.55-.67.21.24.15.54.16.82.06.93-.09,1.84-.17,2.76-.11,1.22.28,2.22,1.23,3.01.37.31.69.66.76,1.16.1.69.51,1.15,1.08,1.48.68.39.95.98,1.1,1.72.28,1.42.21,2.91.74,4.27.69,1.74,1.31,3.44,1.59,5.33.19,1.3.4,2.54.26,3.85-.17,1.53.43,2.57,1.55,2.95q1.56.53,1.66,2.19c.01.24,0,.48.04.71.14,1.14.37,2.24,1.2,3.11.49.52,1.09.71,1.79.47.67-.23.91-.78.95-1.42.04-.68.03-1.37.01-2.06-.05-1.72.23-3.36,1.08-4.87.75-1.32.96-2.73,1.04-4.23.19-3.43-.4-2.92,2.07-6.13,1.32-1.71,1.95-3.79,1.31-6.03-.17-.59-.17-1.21-.08-1.81.21-1.35.46-2.7.71-4.04.04-.22.01-.48.34-.62,0,.55.04,1.08,0,1.59-.11,1.17.24,2.13,1.18,2.85,1.31,1.01,1.44,2.22.81,3.71-.57,1.35-.95,2.8-1.29,4.21-.4,1.69-.24,3.48.4,5.13.46,1.19.55,2.4.5,3.64-.02.53,0,1.05-.02,1.58-.09,2.78.82,5.22,2.6,7.34.38.46.59.99.39,1.54-.31.85-.32,1.76-.53,2.63-.38,1.58,0,2.7,1.07,3.25.5.25.65.55.58,1.05-.25,1.96.4,3.46,2.26,4.32.05.02.08.07.13.09.52.27.66.71.58,1.26-.09.63-.19,1.25-.22,1.88-.02.48.07.97.55,1.23.49.28.91.08,1.32-.39Zm58.47-15.8c-.32.2-.62.41-.94.59-1.12.66-2.15,1.43-3,2.41-1,1.16-1.07,1.72-.28,3.04.29.48.25.84-.1,1.27-.76.92-1.63,1.72-2.53,2.49-.69.6-1.58,1.05-1.88,1.97-.19.57-.51.87-1,1.12-.8.4-1.47,1-1.82,1.81-.57,1.31-1.63,2.02-2.83,2.6-.24.11-.47.23-.7.36-2.14,1.19-3.81,2.98-5.61,4.58-.53.47-.86,1.13-1.07,1.82-.28.94.35,1.72,1.33,1.64.45-.03.87-.17,1.22-.49.84-.76,1.73-1.47,2.51-2.28,1.3-1.36,2.8-2.24,4.7-2.51,1.18-.17,2.42-.31,3.43-1.09,1.09-.84,2.08-1.77,2.99-2.8.92-1.04,1.78-2.15,2.98-2.91.45-.28.77-.72.97-1.22.8-2.02,2.12-3.68,3.58-5.25.48-.52,1.01-1.01,1.12-1.77.19-1.25.89-2.17,1.89-2.89,1.2-.86,2.39-1.72,3.61-2.55,1.34-.91,2.64-1.84,3.22-3.46.12-.33.43-.59.68-.86,1.04-1.09,2.35-1.72,3.75-2.23,2.07-.76,3.75-2.02,4.49-4.23.18-.52.55-.83.98-1.08.84-.49,1.71-.93,2.57-1.39,1.42-.77,2.4-2.14,3.89-2.82.5-.23.96-.55,1.39-.89,1.73-1.38,3.33-2.91,4.91-4.45.4-.39.82-.85.39-1.44-.43-.59-1.07-.64-1.71-.37-.65.28-1.26.66-1.92.92-1.27.49-2.44,1.1-3.36,2.14-.6.67-1.35,1.19-2.17,1.56-.8.36-1.5.85-2.16,1.43-.19.17-.42.37-.65.42-2.09.46-3.87,1.8-6.01,2.12-.68.1-1.2.5-1.61,1.05-.14.19-.19.5-.62.54.77-1.72.07-3.04-1.06-4.24-.17-.18-.29-.38-.28-.63.04-.62-.23-1.12-.6-1.59-.27-.35-.36-.73-.36-1.18.02-1.5.16-3,0-4.5-.11-.98.03-2.09-.81-2.81-1.69-1.44-2.13-3.54-2.59-5.46-.71-2.95-1.74-5.72-3.11-8.4-.21-.42-.5-.79-1.03-.7-.57.09-.72.56-.78,1.05-.03.23-.02.48.02.71.29,1.49.31,2.98.23,4.49-.03.57.09,1.13-.64,1.4-.28.11-.41.48-.44.8-.08.95-.23,1.94.04,2.83.49,1.63.41,3.28.45,4.93.04,1.52-.09,3.1.51,4.53.78,1.85,1.27,3.72,1.24,5.74-.01,1.08.49,1.64,1.52,1.9.36.09.31.26.25.51-.31,1.47-.66,2.93-1.2,4.33-.5,1.3-1.02,2.61-.63,4.06.23.86-.24,1.21-.96,1.5-1.39.57-2.9.8-4.24,1.48-1.19.6-1.27,1.44-.22,2.33Zm-31.15-27c-.45-.69-.52-1.36-.55-2.04-.05-.89.05-1.8-.18-2.67-.27-1-.85-1.5-1.62-1.41-.97.12-1.46.73-1.41,1.83.04.95,0,1.88-.13,2.83-.16,1.22-.01,2.47-.33,3.69-.05.19.02.42.07.62.33,1.15.25,2.28-.1,3.42-.27.88-.47,1.78-.43,2.72.03.92.3,1.79,1.17,2.17.74.32.76.83.74,1.46-.01.44-.22.82-.43,1.17-.7,1.17-.76,2.33-.03,3.5.4.63.37,1.3.2,1.98-.09.38-.22.76-.26,1.15-.21,1.88.29,3.75,0,5.64-.14.87.35,1.37,1.13,1.54.76.16,1.41-.22,1.75-1.01.29-.67.34-1.38.3-2.09-.05-.94.1-1.83.56-2.67.58-1.07.76-2.23.71-3.43-.05-1.08,0-2.16-.14-3.23-.11-.84.07-1.31.61-1.71,0,1.15,0,2.22,0,3.29,0,.79.25,1.44.91,1.91.54.39.93.92,1.34,1.43.84,1.05,1.32,2.36,2.32,3.27,1.05.96,1.4,2.12,1.25,3.48-.07.64,0,1.26.27,1.85.47.98.71,2.03.87,3.1.15,1,.61,1.83,1.45,2.44.52.38,1.07.45,1.63.18.56-.27.86-.76.84-1.4-.02-.77-.08-1.53-.48-2.21-.92-1.55-1.3-3.19-1.06-4.99.29-2.22-.23-4.22-1.63-6-.45-.57-.65-1.22-.45-1.99.2-.79.02-1.6-.45-2.27-.8-1.13-1.55-2.33-2.89-2.95-.27-.12-.49-.34-.48-.67.01-.34.3-.47.58-.58.62-.24,1.25-.49,1.73-.92.79-.7,1.76-.98,2.68-1.42,2.74-1.28,3.72-3.73,2.28-6.28-.49-.88-1.13-1.7-1.68-2.56-.26-.41-.34-.67-.08-1.11.48-.82.37-1.45-.27-2.15-.65-.72-1.44-1.03-2.41-.81-.83.19-1.62.11-2.37-.32-1.24-.7-2.04-.56-2.95.58-.91,1.15-2.07,2.11-2.58,3.62Zm16.03,35.25c.03.97.03,2.13.71,3.15.24.36.52.6.97.53.43-.07.61-.38.7-.76.24-.94.49-1.88.81-2.8.32-.91.67-1.85.7-2.82.07-2.08.43-4.14.52-6.22.02-.42.08-.85.34-1.2.9-1.23.87-2.6.66-4.01-.06-.36-.28-.73-.1-1.08.76-1.54.76-3.14.52-4.79-.05-.35-.18-.77.25-.98.41-.2.73.11.97.35,1.05,1.08,2.37,1.07,3.68.87.67-.1,1.14-.02,1.66.38.84.64,1.82.96,2.88.88.64-.05,1.22-.33,1.13-1.04-.07-.53.13-.66.5-.86,1.12-.63,1.17-1.72.1-2.44-.64-.43-1.33-.75-2.13-.75-.34,0-.68-.03-.94-.33-.95-1.08-2.15-1.36-3.5-1-.35.09-.5.12-.61-.28-.17-.62-.66-.85-1.26-.87-.61-.02-1.21.02-1.81.14-.33.06-.73.25-.98-.04-.25-.3.03-.65.15-.95.67-1.72,1.24-3.48,1.55-5.29.21-1.22.45-2.41.9-3.57.51-1.32.43-2.59-.81-3.56-.35-.28-.32-.65-.12-1,.39-.69.81-1.35,1.19-2.05.45-.83.98-1.64,1.03-2.62.05-.94-.4-1.44-1.33-1.49-1.16-.06-2,.54-2.54,1.87-.52,1.27-1.16,2.47-1.86,3.64-.33.56-.55,1.14-.63,1.77-.2,1.46-.35,2.92-1.05,4.26-.22.42-.21.92-.27,1.39-.09.73.18,1.55-.19,2.19-.72,1.27-.79,2.59-.68,3.98.06.74-.28,1.13-1.06,1.14-.55,0-1.13,0-1.59.37-.55.45-1.15.66-1.88.66-.69,0-1.2.43-1.34,1.13-.14.7.28,1.13.85,1.45.36.2.74.26,1.14.24.54-.03,1.01.13,1.49.4.71.38,1.4,1.06,2.21.96.99-.12.59.38.42.71-.49.93-.83,1.88-.72,2.94.01.1,0,.23-.05.31-.92,1.26-.53,2.5.07,3.72.21.42.19.78,0,1.19-.43.88-.59,1.86-.28,2.77.65,1.87.53,3.73.11,5.59-.27,1.21-.49,2.42-.5,3.86Zm4.35,3.11c.53-.6.85-1.37,1.48-1.89.85-.7,1.64-1.48,2.52-2.14.56-.42.71-.82.42-1.46-.52-1.14-.24-2.2.4-3.21.66-1.04,1.52-1.89,2.51-2.59.64-.45,1.04-.92.98-1.74-.02-.31.14-.61.3-.89.64-1.1,1.69-1.61,2.85-1.96.8-.24,1.62-.43,2.4-.78.43-.19.61-.42.5-.91-.17-.76-.03-1.52.22-2.25.34-1,.68-1.99,1.06-2.97.13-.34.2-.62-.16-.81-.39-.2-.58.08-.73.37-.34.65-.84,1.18-1.14,1.87-.28.67-.89,1.17-1.65,1.37-1.62.42-3.13.11-4.54-.74-.3-.18-.58-.4-.94-.32-.6.13-1.2.07-1.8,0-1.15-.14-1.15-.12-1.3,1.02-.02.16-.05.32-.11.46-.4,1.01-.41,2.04-.32,3.11.11,1.38-.02,2.74-.85,3.93-.19.28-.26.63-.27.98-.02,1.45-.23,2.88-.38,4.31-.13,1.25-.14,2.5-.54,3.73-.37,1.14-.9,2.24-.9,3.51Zm-45.29-18.65c0,.29-.04.76,0,1.24.11,1.21.71,2.25,2.25,1.99.5-.08.95.12,1.31.43.44.36.93.61,1.46.75.43.11.64.36.82.74.41.89,1.14,1.25,2.07.97.9-.28,1.76-.63,2.75-.41.34.07.72-.11,1.05-.29,1.4-.78,2.61-1.76,3.55-3.06.43-.6.91-1.15,1.39-1.71.97-1.16,1.78-2.42,1.65-4.05-.1-1.3-.88-2.28-1.65-3.17-1-1.15-.87-2.2-.27-3.4.39-.78.67-1.58.79-2.46.28-2.14-.89-3.96-1.25-5.95-.02-.1-.1-.19-.16-.27-1.23-1.73-2.92-2.8-4.97-3.24-1.28-.27-2.51-.03-3.59.78-1.16.86-2.05,1.97-2.79,3.18-.33.54-.73.92-1.27,1.23-1.53.87-2.51,2.15-2.7,3.93-.1.94-.43,1.73-1.03,2.49-1.13,1.43-1.13,2.77-.12,4.28.36.54.54,1.12.71,1.73.38,1.38-.16,2.72,0,4.27Zm39.35,12.74c.2-.89.49-1.78.58-2.68.09-.98.23-2-.12-2.97-.46-1.29-.47-2.57-.07-3.87.12-.39.16-.78-.02-1.15-.66-1.43-.48-2.78-.01-4.26.69-2.22.45-2.36-1.56-2.86-.2-.05-.41-.06-.62-.09-.98-.11-1.77-.57-2.44-1.3-.52-.57-.56-1.32-.8-2-1.37.85-1.35.83-.4,2,.85,1.04,1.77,2.12,1.68,3.55-.08,1.32.24,2.42,1.06,3.42.08.1.13.23.19.34.97,1.84,1.05,3.82.86,5.84-.08.79-.14,1.57.24,2.31.61,1.17,1.16,2.36,1.42,3.73Zm-20.8-23.34c-.42.76-.74,1.35-1.07,1.94-.09.17-.15.37,0,.51.86.81,1.36,1.89,2.11,2.89.27-.58.51-1.07.73-1.57.08-.19.13-.41-.11-.56-1.07-.72-1.44-1.83-1.67-3.22Z"/>
  <path class="cls-1" d="m54.97,48.32c.28-.19.28-.44.27-.67-.06-1.2.34-2.28.89-3.31.25-.47.48-.96.44-1.5-.15-2.1,1.63-4.15,3.42-4.74.78-.26,1.22-.64,1.55-1.45.64-1.57,2.09-2.32,3.61-2.85,1.6-.55,3.23-.81,4.73.35.25.19.5.07.76.02.98-.19,1.93-.42,2.95-.14.87.24,1.61.62,2.17,1.34.12.16.19.41.46.37.3-.05.34-.34.38-.54.21-.98.34-1.97.57-2.94.59-2.5.52-4.99.08-7.51-.33-1.92.87-3.84,2.51-4.11.98-.16,1.9-.35,2.85-.67,1.65-.57,3.37.52,3.88,2.21.62,2.04.38,4.01-.42,5.94-.1.24-.25.48-.21.75.14,1.09.19,2.21.47,3.26.26.98.5,1.93.44,2.94-.01.19-.11.46.13.57.24.11.38-.13.53-.27.89-.85,1.84-1.56,3.13-1.66.27-.02.41-.3.61-.48,1.82-1.62,3.53-3.38,5.61-4.7,1.29-.82,2.57-1.68,4.14-1.83,1.6-.15,2.9.62,3.35,1.93.47,1.39-.08,2.95-1.4,3.78-1.25.8-2.21,1.83-2.95,3.11-.81,1.4-2.12,2.24-3.51,2.96-.76.39-1.29.94-1.46,1.75-.68,3.25-3.15,4.71-5.9,5.83-.68.28-.71.54-.45,1.09.8,1.68,2.07,3.04,3.1,4.56.27.4.72.51,1.16.6,2.09.42,3.45,1.96,3.6,4.11.05.7.19,1.35.64,1.9,1.23,1.5,1.49,3.34,1.69,5.17.27,2.51,1.13,4.86,1.96,7.22.51,1.44.93,2.91.66,4.46-.16.97-.68,1.69-1.59,2.11-.38.18-.72.39-.98.77-.85,1.25-1.93,1.66-3.34,1.3-1.14-.29-2.11-1.37-2.17-2.72-.07-1.6-.73-3.06-.95-4.62-.05-.33-.24-.58-.42-.84-.89-1.26-1.61-2.59-1.99-4.1-.19-.74-.52-1.43-1.14-1.94-1.28-1.05-1.78-2.46-2.04-4.05-.24-1.43-.73-2.77-1.93-3.76-.6-.5-.74-.26-.84.3-.29,1.58-.46,3.19-.89,4.72-.64,2.3-1.44,4.55-2.56,6.68-.58,1.11-1.51,1.7-2.76,1.58-1.24-.12-1.87-.96-2.45-2.06-1.38-2.6-.51-5.02.32-7.47.32-.93.31-1.9.57-2.86-.37.05-.48.3-.58.47-1.06,1.79-2.69,2.35-4.64,2.15-.56-.06-1.01.07-1.46.41-.88.68-1.8,1.27-3.01,1.2-.51-.03-.62.48-.8.86-.49,1.04-.88,2.13-1.61,3.06-.86,1.08-1.99,1.35-3.25,1.1-1.22-.24-1.89-1.16-2.1-2.31-.22-1.21-.7-2.21-1.3-3.28-.57-1.01-1.05-1.68-2.2-1.91-.56-.11-1-.56-1.26-1.12-.09-.19-.17-.51-.45-.45-.24.05-.24.38-.35.58-.67,1.17-.5,2.44-.43,3.69.06,1.17,0,2.32-.54,3.39-.23.48-.53.9-.98,1.21-.28.19-.78.22-.67.74.1.46.41.8.86.96.72.26,1.42.58,1.97,1.12.92.92,1.82,1.9,1.89,3.27.06,1.15.65,1.93,1.38,2.71,2.41,2.58,3.58,5.69,3.9,9.17.07.78.35,1.53.19,2.34-.25,1.26-.96,2.13-2.18,2.45-1.25.34-2.44-.02-3.16-1.08-.81-1.19-1.63-2.28-3.03-2.81-.26-.1-.52-.32-.66-.55-1.25-2.09-3.04-3.85-3.8-6.24-.06-.2-.18-.41-.16-.61.09-1.03-.49-1.55-1.33-1.99-1.45-.76-2.44-1.98-3.11-3.46-.28-.63-.7-1.05-1.38-1.3-1.75-.62-2.85-1.92-3.46-3.65-.19-.54-.38-.81-1.07-.63-1.51.4-3-.41-3.78-1.91-.3-.59-.48-1.22-.63-1.86-.15-.66-.54-1.08-1.22-1.16-.37-.05-.72-.13-1.02-.37-.2-.15-.41-.17-.67-.12-2.31.5-3.68-.17-4.73-2.31-.07-.14-.14-.28-.21-.43-.4-.88-.95-1.5-2.04-1.25-.46.11-.99-.43-1.32-.03-.25.3-.15.86-.28,1.29-.14.46-.1.86.08,1.3.76,1.89.57,3.71-.43,5.46-.28.49-.27.93.07,1.39.35.49.69,1,.99,1.52.75,1.36.75,2.77.18,4.18-.34.84-.31,1.56.18,2.37,1.04,1.71.81,3.49-.61,5.08-.58.65-.75,1.28-.6,2.15.2,1.12.09,2.28-.57,3.27-1.37,2.05-3.99,1.95-5.56-.16-.79-1.06-1.15-2.24-1.08-3.55.04-.65-.1-1.16-.65-1.58-1.23-.95-1.41-2.28-1.2-3.71.15-1,.04-1.91-.49-2.84-.79-1.41-1.49-2.92-1.99-4.44-.57-1.73-.64-3.63.28-5.38.56-1.05-.08-1.81-.64-2.57-.48-.64-.87-1.3-1.05-2.09-.17-.76-.09-1.49.22-2.16.67-1.43.52-2.86.15-4.32-.38-1.5-1.19-2.88-1.35-4.44-.01-.1-.08-.22-.05-.31.46-1.24-.32-2.05-.96-2.94-.78-1.1-.97-2.37-.76-3.69.07-.45-.06-.85-.17-1.29-.5-1.85-1.18-3.72-.43-5.67.44-1.15.27-2.07-.71-2.96-2.59-2.33-3.12-5.25-2.08-8.5.3-.92.21-1.58-.55-2.3-2-1.89-2.32-4.97-.84-7.03.69-.96,1.64-1.48,2.85-1.33.46.06.72-.18,1.02-.45,1.3-1.14,2.72-2.06,4.5-2.27.62-.07,1.22.01,1.77.25.88.37,1.61.22,2.34-.36,1.09-.87,2.18-1.73,3.31-2.55,2.88-2.09,5.92-2.03,8.92-.41,1.75.95,3.66,1.63,5.26,2.86.35.27.76.16,1.15.11,2.04-.24,3.08.32,3.93,2.19.16.36.39.46.75.4,2.16-.4,5.08,2.07,5.16,4.54.03.82.16,1.63-.02,2.44-.17.76.12,1.32.6,1.85.46.51.64.49.92-.12.78-1.71,2.34-2.66,4.16-2.54,1.56.1,2.72,1.1,3.02,2.63.06.33.16.6.45.79,1.69,1.14,1.87,2.79,1.4,4.55-.22.82-.39,1.62-.41,2.47-.02,1.02-.29,1.97-.92,2.8-.3.39-.3.64.24.89,1.2.57,1.82,1.85,1.6,3.23-.08.48-.04.91.15,1.36.67,1.63.37,3.26-.08,4.88-.11.38-.18.77-.28,1.15-.16.65-.03,1.16.56,1.57.81.57,1.27,1.38,1.44,2.36.04.22.02.48.24.69Zm-15.11-29.47c0-.11-.03-.45,0-.79.22-1.96-2.12-4.02-4.2-2.95-1,.52-1.28.25-1.37-.9-.13-1.73-.58-2.1-2.3-1.96-.57.05-1.18.26-1.69-.12-1.82-1.33-3.97-2.05-5.87-3.23-1.5-.94-4.72-1.18-6.57.42-.91.79-1.91,1.49-2.85,2.24-1.37,1.1-2.82,1.72-4.59.95-.68-.29-1.38-.17-2.06.15-1.14.53-2.16,1.21-2.95,2.2-.36.45-.72.68-1.34.36-.72-.37-1.22-.13-1.63.59-.62,1.1-.5,3.06.56,3.87,1.72,1.32,1.81,2.88,1.23,4.71-.1.32-.14.67-.22,1-.41,1.71-.06,3.24,1.12,4.56.33.37.66.76,1.02,1.1,1.25,1.17,1.54,2.55,1.03,4.18-.24.76-.58,1.55-.27,2.39.41,1.11.27,2.37.9,3.43.17.29.04.67-.04,1.01-.26,1.09-.04,2.09.68,2.96.28.35.55.7.84,1.05.37.46.54.94.36,1.54-.21.72-.17,1.46.08,2.17.28.79.59,1.58.84,2.38.52,1.67,1.07,3.41.41,5.1-.62,1.59-.52,2.79.57,4.18.9,1.13,1.48,2.6.36,4.08-.16.21-.21.54-.25.82-.22,1.52-.16,2.99.8,4.3.59.8.47,1.95,1.13,2.67,1.09,1.21.87,2.61.83,4.01,0,.32-.07.63-.08.94-.01.47.12.93.55,1.15,1.25.64,1.54,1.68,1.35,2.97-.03.23,0,.47,0,.71.04.93.46,1.67,1.16,2.25.68.57,1.42.4,1.83-.4.24-.47.24-.98.17-1.47-.24-1.57-.18-3.03,1.22-4.1.16-.12.26-.34.34-.53.3-.72.37-1.44-.1-2.11-.84-1.18-.95-2.42-.43-3.74.49-1.24.46-2.41-.4-3.5-.23-.29-.38-.63-.61-.92-.75-.98-.75-1.94-.12-3,.89-1.51,1.01-3.08.13-4.66-.2-.36-.33-.73-.11-1.13.6-1.09.4-2.12-.19-3.15-.28-.48-.43-1.02-.52-1.56-.09-.58.14-1.07.62-1.35.52-.3.81.16,1.11.48.29.3.57.62.88.91.77.71,1.6,1.36,2.74,1.03.88-.26,1.48.02,1.95.75.23.35.47.7.71,1.04.44.62.65,1.38,1.21,1.93.66.65,1.25.75,1.93.12.65-.6,1.14-.48,1.65.13.41.49.91.79,1.58.71.44-.05.76.17.98.53.42.7.93,1.39,1.08,2.18.42,2.19,1.54,2.56,3.25,1.65.57-.3.95-.09,1.2.46.37.79.73,1.57,1.11,2.35.52,1.07,1.27,1.94,2.5,2.07.82.09,1.21.46,1.5,1.15.77,1.85,1.93,3.37,3.78,4.27.26.13.48.33.72.49.5.33.77.75.68,1.39-.11.76.11,1.45.45,2.13.81,1.6,2.07,2.91,2.91,4.49.1.2.32.41.52.46,1.55.42,2.46,1.53,3.15,2.88.04.07.1.13.15.19.31.36.67.6,1.18.41.54-.2.71-.65.63-1.15-.15-.94-.14-1.9-.35-2.81-.63-2.73-1.67-5.28-3.81-7.21-.8-.72-1.16-1.55-1.23-2.62-.09-1.54-.96-2.58-2.36-3.17-1.04-.43-1.86-1.05-2.32-2.12-.35-.82-.77-1.64-1.73-1.95-.86-.28-1.32-.86-1.51-1.75-.4-1.95-1.21-3.64-3.1-4.61-.36-.18-.54-.54-.7-.92-.44-1.01-.8-2.07-1.5-2.94-.76-.95-1.7-2.01-2.93-1.66-1.34.38-1.54-.36-1.93-1.16-.15-.31-.33-.59-.6-.82-.36-.3-.79-.44-1.16-.19-.53.36-.68.04-.85-.35-.36-.79-.74-1.57-1.25-2.28-.42-.58-.92-1.03-1.69-.97-.31.02-.53-.09-.62-.37-.12-.36.19-.45.42-.55.89-.38,1.55-.99,1.91-1.9.34-.87.97-1.28,1.88-1.3,1.39-.04,2.37-.75,3.1-1.89.67-1.04.98-2.2,1.2-3.4.07-.37.01-.83.4-1.07,1.11-.69,1.27-1.77,1.16-2.9-.09-.84.17-1.48.72-2.07,1.1-1.18,1.45-2.61,1.25-4.17-.17-1.32-.2-2.6.15-3.91.27-1,.36-2.17-.49-2.9-1.08-.92-1.24-1.97-1-3.22.03-.18.02-.37.04-.79Zm44.51,20.54c-.34-.9-.41-1.67.01-2.5.59-1.16.8-2.46.32-3.67-.29-.74-.41-1.44-.42-2.21,0-.31.03-.67-.11-.93-.54-1.02-.12-1.92.26-2.84.54-1.32.77-2.67.42-4.09-.15-.61-.37-1.17-1.04-1.37-.7-.21-1.29.06-1.66.61-.36.52-.66.5-1.16.22-.74-.41-1.48-.08-1.74.72-.17.51-.22,1.03-.13,1.56.65,3.5.21,6.92-.77,10.3-.37,1.29-.99,2.53-1.08,3.87-.1,1.48-.56,2.81-1.13,4.14-.31.72-.59,1.48-.56,2.29.03.71.35,1.29,1.04,1.55.63.24,1.04-.19,1.41-.61.38-.44.75-.89,1.14-1.31.16-.17.23-.6.56-.38.25.16.08.51-.03.73-.4.83-.43,1.7-.53,2.6-.13,1.12-.17,2.29-.85,3.31-.37.56-.6,1.32-.12,1.94.42.54.47,1.09.39,1.7-.1.73-.16,1.47-.33,2.18-.35,1.49-.36,3.04-.83,4.5-.62,1.93-1.61,3.79-.39,5.87.26.45.27,1.05.93,1.09.71.05.91-.52,1.23-1.02.65-1.03.72-2.25,1.26-3.3.56-1.09.9-2.24,1.1-3.44.31-1.76.63-3.52.93-5.29.06-.34.14-.55.54-.46.66.15,1.09-.19,1.48-.68.45-.57.62-.54.86.15.23.69.49,1.33,1.25,1.62.13.05.23.22.3.35.79,1.45,1.62,2.89,1.77,4.6.09.95.47,1.79,1.24,2.39.96.75,1.46,1.78,1.78,2.91.33,1.15.78,2.23,1.51,3.19.51.68.92,1.41,1.03,2.27.19,1.42.98,2.73.81,4.23-.01.12.05.26.08.39.14.62.55.97,1.17.98.66,0,1.08-.38,1.24-1.02.09-.35.11-.72.16-1.09,1.37.5,1.94.1,1.89-1.31-.03-.84-.16-1.68-.46-2.47-1.19-3.05-2.11-6.17-2.41-9.45-.09-.96-.41-1.83-.99-2.63-.56-.77-1-1.6-1.11-2.58-.25-2.2-.64-2.64-2.78-3.1-.75-.16-1.26-.56-1.71-1.15-1.35-1.77-2.52-3.67-3.69-5.56-.67-1.09-.24-2.3,1-2.58,1.18-.27,2.17-.92,3.2-1.49,1.24-.69,2.01-1.7,2.38-3.09.4-1.5,1.2-2.7,2.71-3.37,1.43-.64,2.55-1.67,3.14-3.18.13-.33.4-.56.66-.77.82-.66,1.5-1.46,2.43-2,.51-.3.77-.87.51-1.51-.25-.59-.77-.67-1.32-.63-.56.04-1.08.19-1.59.44-2.77,1.39-4.95,3.53-7.17,5.61-.44.41-.8,1.04-1.44,1.02-1.28-.05-2.13.65-2.94,1.46-.62.63-1.3,1.16-2.14,1.44-.53.18-1.02.41-1.53.85Zm-39.19,11.65c0-.35,0-.71-.25-.98-1.74-1.92-1.45-3.98-.4-6.07.22-.44.25-.75-.06-1.14-.69-.86-.83-1.85-.55-2.9.26-.95.28-1.86.1-2.85-.25-1.37-.03-2.68,1.39-3.47.5-.28.3-.65-.07-.94-.44-.33-.9-.64-1.32-.98-.61-.5-.83-.46-1,.3-.2.94-.47,1.86-1.12,2.57-.57.62-.69,1.3-.64,2.09.07,1.19-.3,2.23-1.19,3.06-.32.3-.44.68-.54,1.11-.75,3.18-2.04,5.9-5.78,6.4-.36.05-1.1,1.07-.91,1.33.57.8.74,1.96,1.88,2.3.87.25,1.59.68,2,1.53.16.34.46.52.81.55,2.26.2,3.79,1.5,4.81,3.39.83,1.56,1.56,3.15,3.15,4.1.15.09.25.33.45.24.18-.08.17-.31.18-.49.03-.49-.13-.92-.36-1.35-.35-.68-.68-1.41-.5-2.18.11-.47.06-.9-.09-1.3-.3-.82-.3-1.65-.24-2.49.04-.6.17-1.2.26-1.79Zm30.04-11.06c-.07,0-.14-.01-.16.01-1.24,1.29-2.8,1.67-4.52,1.62-.56-.01-1,.19-1.17.83-.09.38-.32.72-.64.98-1.24,1.01-2.32,2.22-3.64,3.14-.59.41-.62.79-.24,1.36.63.94.83,1.97.4,3.07-.13.34-.38.72-.02,1.02.3.26.75.36,1.12.18,1.62-.77,2.97-.09,4.26.79.46.31.78.34,1.25-.01,1.2-.9,2.52-.86,3.73.02.15.11.28.34.59.18-.13-1.18.27-2.24.86-3.27.2-.36.43-.89-.32-1.02-2.07-.35-3.19-1.9-2.91-4,.19-1.4.72-2.68,1.31-3.95.15-.32.28-.61.11-.95Zm-4.39,18.96c2.22.13,3.48-.71,4-2.54.24-.86.07-1.69-.48-2.01-.75-.44-1.36-.04-1.93.43-.76.63-1.21.68-2.07.19-.59-.34-1.17-.71-1.77-1.05-.49-.28-.99-.37-1.48,0-.39.3-.81.34-1.26.15-.7-.3-1.33-.16-1.92.3-.29.23-.6.43-.91.63-.34.22-.69.44-1.08.12-.39-.31-.37-.74-.23-1.16.1-.3.25-.58.4-.85.39-.71.81-1.41,1.19-2.13.54-1.01.36-1.96-.45-2.63-.83-.69-.88-.98-.26-1.89.21-.3.45-.59.73-.83,1.3-1.15,2.72-2.14,3.95-3.38.43-.43.78-.87.38-1.43-.38-.53-.04-.6.33-.75.88-.35,1.82-.26,2.73-.32,1.26-.08,2.46-.29,3.33-1.35.42-.51.6-1.06.4-1.68-.19-.6-.74-.79-1.29-.91-.82-.19-1.64-.03-2.41.22-.76.25-1.38.17-1.94-.41-.29-.3-.66-.42-1.07-.43-1.7-.06-3.02.76-4.27,1.78-.25.2-.46.5-.44.81.06,1.2-.7,1.57-1.67,1.77-.28.06-.56.17-.82.29-1.24.6-2.13,1.48-2.13,2.95,0,.87-.25,1.66-.65,2.41-.46.85-.77,1.72-.68,2.71.04.49-.15.93-.42,1.33-.38.57-.76,1.13-1.15,1.7-.47.69-.81,1.42-.79,2.27.02.55.23,1.02.83,1.08.5.05.46.26.35.62-.19.63-.41,1.25-.45,1.91-.06.98.44,1.56,1.43,1.56.39,0,.79-.1,1.18-.1.67.02.96.37.8,1.01-.25,1,.08,1.77.85,2.36.4.31.54.66.57,1.14.05.73.06,1.48.4,2.16.39.75,1.1.91,1.77.4.57-.43.83-1.07,1.12-1.69.47-1,.82-2.06,1.53-2.93.25-.3.55-.58.94-.4.87.38,1.53,0,2.18-.49.83-.62,1.64-1.29,2.62-.97Zm-23.07,3.49c-.07.99,0,1.95.6,2.8.34.49.8.75,1.41.69.61-.06.83-.52.98-1,.22-.68.31-1.39.23-2.11-.18-1.67-.16-3.3.65-4.85.31-.59.44-1.29.63-1.95.2-.65.28-1.34-.09-1.92-1.06-1.68-.68-3.1.47-4.58.76-.98.35-2.29-.72-2.91-.67-.39-.95-.94-1.03-1.66-.11-1.01.05-1.99.34-2.96.37-1.22.65-2.47.1-3.7-.29-.66-.38-1.29-.27-1.99.09-.6.13-1.25-.55-1.59-.72-.36-1.47-.3-2.07.22-.41.36-.73.37-1.21.21-.84-.27-1.39.14-1.45,1.03-.02.29-.05.61.05.86.41,1.05.25,2.04-.1,3.07-.24.72-.27,1.5.54,1.95.49.27.53.65.48,1.12-.09.95-.64,1.72-.96,2.57-.41,1.09-.5,2.16.41,3,.71.66.83,1.41.75,2.28-.03.34-.03.69-.11,1.02-.43,1.85.44,3.62.29,5.46-.01.14.08.32.17.43.62.76.61,1.65.56,2.55-.04.66-.08,1.31-.11,1.97Zm1.09-39.48c.04-1.49-.47-2.14-1.6-2.15-1.71-.03-2.82,1.67-2.07,3.25.25.54.25.96-.03,1.48-.37.67-.73,1.34-.95,2.08-.34,1.14.2,2.39,1.29,2.81.4.16.65.43.9.73,1.04,1.21,3.01,1,3.44-.51.5-1.72.71-3.54.93-5.33.1-.81-.5-1.55-1.11-1.48-.94.11-.9-.35-.8-.87Z"/>
  <path class="cls-1" d="m136.5,42.9c.05,1.04-.19,2.04-.42,3.04-.13.56-.26,1.13-.38,1.69-.03.16-.11.39.11.49.16.07.31-.04.42-.15.66-.67,1.48-1.2,1.46-2.37-.02-.71.28-1.43.65-2.09.39-.69.49-1.48.7-2.24.64-2.33.67-4.83,2.15-6.93,1.49-2.1,4.2-2.49,5.7-.63.81,1.01.96,2.17.59,3.42-.32,1.08-.8,2.11-.93,3.26-.04.33-.06.61.12.9.78,1.27.7,2.62.33,3.97-.39,1.42-.84,2.82-1.11,4.28-.1.53-.13,1.03-.04,1.56.07.41.15.85.1,1.25-.28,2.05.24,3.93,1,5.83.51,1.27.91,2.65.63,4.08-.34,1.67-1.29,2.85-2.96,3.24-1.62.38-2.88-.4-3.85-1.61-.36-.45-.68-.56-1.21-.43-1.19.29-2.35.19-3.47-.34-.93-.43-1.94-.67-2.8-1.26-.24-.16-.49-.13-.76-.05-2.1.62-3.52-.1-4.27-2.16-.06-.17-.11-.35-.18-.52-.08-.2-.19-.39-.44-.39-.27,0-.44.15-.5.42-.29,1.4-1.23,2.01-2.57,2.14-.43.04-.63.27-.78.66-.48,1.32-1.35,2.19-2.83,2.24-1.52.05-2.51-.59-3.13-2.17-.52-1.32-1.35-2.51-1.63-3.93-.04-.22-.16-.54-.46-.42-.36.15-.78.46-.67.88.53,2.03-.97,3.36-1.68,4.94-.48,1.08-1.83,1.53-2.98,1.29-1.25-.27-2.06-1.04-2.36-2.27-.12-.47-.25-.96-.09-1.47.1-.34-.04-.68-.2-.99-.98-1.91-.83-3.75.31-5.55.81-1.29,1.12-2.77,1.55-4.21.15-.5-.01-.99-.16-1.47-.36-1.14-.43-2.27.06-3.39.55-1.25.84-2.6,1.62-3.76.37-.55.8-1.01,1.4-1.23.67-.24.91-.69.99-1.35.16-1.34.82-2.43,1.79-3.34,1.88-1.76,4.6-.92,5.21,1.6.18.74.27,1.5.27,2.27,0,.42,0,.84.03,1.26.02.25.03.61.3.67.3.07.39-.28.52-.5.82-1.44,2.84-1.75,4.35-.7,1.16.81,1.64,2.01,1.93,3.32.05.2.08.41.13.62.06.25.21.45.48.45.27,0,.3-.26.37-.45.47-1.17.92-2.34,1.51-3.46.86-1.62,1.97-2.43,3.44-2.2,1.38.22,2.55,1.66,2.66,3.32.02.31,0,.63,0,.95Zm4.64,16.83c.21.82.33,1.55.58,2.24.65,1.81,2.55,2.28,3.62.93.44-.55.51-1.2.41-1.87-.16-1.15-.4-2.31-.92-3.34-1.32-2.65-.75-5.48-.77-8.22-.01-1.66.73-3.28,1.2-4.89.27-.94.2-1.76-.32-2.56-.32-.5-.36-1.01-.28-1.58.18-1.37.72-2.63,1.05-3.96.24-.95,0-1.57-.67-1.9-.72-.36-1.67-.16-2.16.61-.73,1.13-1.29,2.32-1.47,3.7-.22,1.66-.52,3.33-1.18,4.86-.5,1.16-.79,2.34-1.03,3.55-.12.62-.42,1.01-.93,1.37-1.19.84-2.47,1.6-3.26,2.91-.13.22-.33.42-.55.56-.63.41-.9,1-.99,1.71-.07.48-.21.94-.58,1.31-.25-.25-.2-.5-.15-.77.28-1.54.72-3.05.91-4.59.22-1.81.44-3.6.88-5.37.23-.92.36-1.87.05-2.81-.19-.57-.5-1.09-1.17-1.14-.65-.05-.98.42-1.25.93-1.2,2.22-1.9,4.65-2.92,7-.12-.31-.23-.62-.36-.93-.21-.53-.59-1.02-1.14-.95-1.12.15-1.23-.56-1.39-1.33-.1-.49-.21-.98-.33-1.46-.18-.73-.47-1.4-1.13-1.84-.9-.6-2.01-.18-1.99.83.05,1.84-.43,3.68-.12,5.52.24,1.45-.28,2.61-1.13,3.74-.07-.11-.12-.2-.18-.28-1.13-1.59-1.13-3.55-1.52-5.33-.53-2.41-1.1-4.87-1.05-7.39,0-.41-.09-.84-.23-1.23-.4-1.17-1.49-1.38-2.32-.46-.54.6-.9,1.29-1.08,2.08-.16.67-.33,1.33-.49,1.99-.1.43-.32.68-.82.67-.77-.02-1.29.41-1.58,1.1-.42,1.02-.82,2.05-1.22,3.08-.23.61-.21,1.22-.04,1.86.2.73.54,1.47.34,2.24-.47,1.86-.95,3.74-1.98,5.39-.72,1.15-.71,2.31-.14,3.46.3.6.43,1.17.38,1.81-.02.31-.02.64.03.95.13.77.87,1.22,1.59.99.64-.21,2.2-3.31,1.89-3.91-.39-.77-.19-1.37.35-1.93.45-.46.66-1,.72-1.62.07-.78.38-1.47.76-2.14.19-.34.35-.43.72-.16.82.58,1.34,1.33,1.55,2.29.45,2.04,1.22,3.96,2.11,5.84.11.23.27.46.44.65.54.61,1.21.61,1.79.04.61-.61.62-1.37.54-2.14-.11-1.07-.25-2.14-.37-3.22-.06-.56-.08-1.11.11-1.7.6.58.84,1.21.76,1.97-.04.34-.02.69.02,1.03.08.81.66,1.49,1.41,1.6.73.11,1.17-.35,1.5-.92.14-.25.34-.54.32-.79-.12-1.16.31-2.28.14-3.44-.06-.45-.16-.88-.34-1.29-.09-.22-.29-.46-.05-.74,1.25.65,1.79,1.89,2.46,2.99.8,1.29,1.46,2.67,1.99,4.11.2.55.67.89,1.31.8.63-.09.8-.58.94-1.11.13-.49-.02-1.05.36-1.55.04.19.08.32.1.45.23,1.56,1.12,2.5,2.65,2.86.3.07.58.24.86.39,1.87.99,3.4.59,4.51-1.19.05-.08.12-.16.24-.33Z"/>
  <path class="cls-1" d="m256.23,80.76c.76-.05,1.55-.28,1.75.77.08-.04.13-.04.15-.07.17-.23.15-.82.47-.66.38.2.06.74.18,1.23-.38-.14-.23-.42-.35-.53-.29-.04-.03.53-.57.39-.46-.12-.49-.25-.48-.61,0-.15.08-.4-.23-.39-.24,0-.29.16-.31.37-.02.22.09.47-.13.69-.33-.33.24-1-.47-1.2Z"/>
  <path class="cls-2" d="m200.43,78.81c-.41.47-.83.67-1.32.39-.47-.27-.57-.76-.55-1.23.03-.63.13-1.25.22-1.88.08-.55-.06-.99-.58-1.26-.05-.02-.08-.07-.13-.09-1.86-.87-2.51-2.36-2.26-4.32.06-.5-.09-.79-.58-1.05-1.08-.55-1.45-1.68-1.07-3.25.21-.87.22-1.77.53-2.63.2-.55,0-1.08-.39-1.54-1.77-2.12-2.69-4.55-2.6-7.34.02-.53,0-1.05.02-1.58.05-1.24-.04-2.44-.5-3.64-.64-1.65-.8-3.44-.4-5.13.34-1.42.72-2.86,1.29-4.21.63-1.49.5-2.7-.81-3.71-.94-.72-1.28-1.68-1.18-2.85.05-.52,0-1.04,0-1.59-.33.13-.3.4-.34.62-.25,1.34-.5,2.69-.71,4.04-.09.6-.09,1.21.08,1.81.64,2.25,0,4.32-1.31,6.03-2.47,3.21-1.88,2.7-2.07,6.13-.08,1.51-.29,2.91-1.04,4.23-.85,1.51-1.14,3.15-1.08,4.87.02.68.03,1.37-.01,2.06-.04.64-.28,1.18-.95,1.42-.7.25-1.3.05-1.79-.47-.83-.87-1.06-1.97-1.2-3.11-.03-.23-.02-.47-.04-.71q-.1-1.65-1.66-2.19c-1.12-.38-1.72-1.42-1.55-2.95.14-1.32-.07-2.55-.26-3.85-.28-1.89-.9-3.6-1.59-5.33-.54-1.35-.47-2.85-.74-4.27-.15-.75-.42-1.34-1.1-1.72-.57-.33-.98-.79-1.08-1.48-.07-.5-.39-.85-.76-1.16-.94-.79-1.34-1.79-1.23-3.01.08-.92.23-1.83.17-2.76-.02-.28.05-.58-.16-.82-.34.12-.47.41-.55.67-.52,1.66-1.08,3.3-1.33,5.03-.16,1.06-.02,2.1.27,3.13.37,1.26.46,2.54.15,3.83-.52,2.15-.83,4.34-1.04,6.54-.1,1.07-.35,2.13-.59,3.18-.31,1.36-.33,2.71-.11,4.08.23,1.45-.12,2.6-1.25,3.67-1.57,1.48-2.37,3.33-1.81,5.62.44,1.76.84,3.6.07,5.36-.73,1.68-1.15,3.43-1.47,5.22-.1.56-.44,1.01-.68,1.5-.22.45-.54.8-1.09.76-.57-.04-.91-.42-1.08-.91-.24-.67-.3-1.39-.34-2.1-.07-1.42.09-2.84.18-4.26.02-.37.13-.77-.05-1.09-.81-1.5-.46-3.02-.14-4.54.33-1.57.16-3.1-.46-4.56-.73-1.76-.84-3.56-.54-5.42.19-1.14.75-2.11,1.5-2.91,1.87-1.99,2.19-4.41,2.16-6.97-.02-1.48-.4-2.92-.55-4.38-.27-2.52.31-4.85,1.15-7.18.91-2.53,1.48-5.16,2.04-7.78.21-.99.09-2.04.33-3.05.23-1.01.62-1.95,1.14-2.84.3-.5.68-.96,1.32-.74.66.22.54.8.44,1.34-.03.15,0,.31,0,.47,1.3-.95,1.43-.89,2.09,1.07.28-.19.26-.48.3-.75.16-1.31.73-2.41,1.66-3.33.47-.47.77-1.06.79-1.68.08-2.19,1.18-3.89,2.46-5.52.13-.17.25-.34.38-.5.38-.46.83-.74,1.45-.5.63.24.99.7,1,1.38.01,1.05-.35,2.02-.68,2.99-.65,1.89-1.37,3.75-1.5,5.79-.06.94,0,1.75.85,2.37.67.48.88,1.23.84,2.03-.05,1.1-.13,2.21-.19,3.31-.02.41.04.81.31,1.12.8.92.86,2,.73,3.13-.08.71-.06,1.3.65,1.76.58.39.72,1.11.65,1.78-.33,3.09,0,6.15.33,9.22.08.71.18,1.41.59,2.03.33.5.16,1.08.24,1.69.4-.59.5-1.22.58-1.82.2-1.59.48-3.18.37-4.8-.2-2.89.42-5.66,1.3-8.38.35-1.07,1.07-1.93,1.84-2.73.72-.75,1-1.67,1.31-2.64,1.04-3.26,1.33-6.71,2.65-9.89.36-.87.91-1.61,1.5-2.31,1.36-1.62,2.05-3.48,2.14-5.57.06-1.27.51-2.33,1.39-3.25.91-.95,1.69-2.01,2.17-3.27.21-.55.6-.99,1.05-1.36.84-.69,1.67-.48,2.06.54.25.67.19,1.34-.09,2-.92,2.24-1.99,4.43-2.7,6.74-.94,3.07-1.29,6.23-.41,9.41.73,2.65,1.26,5.34,1.13,8.1-.06,1.39.11,2.72.71,3.99.51,1.09.68,2.26.57,3.47-.04.48-.02.94.2,1.39.19.39.11.83.02,1.24-.2.93-.08,1.77.65,2.46.55.52.59,1.21.48,1.91-.09.6-.2,1.19-.34,1.78-.17.73-.18,1.43.01,2.18.51,2.01.1,3.94-.84,5.73-.68,1.3-.63,2.54.06,3.76.75,1.34,1.05,2.73.75,4.25-.23,1.15.05,2.16.91,3.03.92.93.94,2.13.73,3.34-.09.52-.17,1.04-.31,1.55-.29,1.07-.06,2.05.53,2.94.87,1.29,1.54,2.61,1.48,4.24-.02.69.24,1.39.37,2.09.12.61.26,1.22-.5,1.54-.8.33-1.15-.21-1.49-.77-.05-.09-.09-.19-.18-.39Zm-33.94-58.55c-.9,1.21-1.34,2.58-1.38,4.08-.02.55.03,1.11-.12,1.65-.71,2.69-1.15,5.47-2.18,8.06-1.17,2.95-1.24,5.94-.69,9,.62,3.51.3,6.79-2.19,9.62-1.73,1.96-1.81,4.36-.98,6.62.9,2.49,1.12,4.89.44,7.41-.14.5-.16.98.07,1.46.46.96.52,1.98.4,3.01-.17,1.45-.12,2.89-.08,4.34,0,.34.09.68.18,1,.06.19.15.42.41.43.23.01.29-.2.37-.36.27-.57.52-1.13.64-1.77.28-1.52.59-3.05,1.3-4.45.29-.58.41-1.19.42-1.83.02-1.17-.14-2.3-.43-3.43-.66-2.54.33-4.62,2.06-6.34.77-.77,1.19-1.51,1.04-2.56-.3-2.01-.14-3.98.33-5.95.63-2.64.55-5.39,1.27-8.02.37-1.36.35-2.71-.04-4.05-.98-3.34.39-6.3,1.46-9.31.17-.49.54-.91,1.14-.78.63.14.73.7.75,1.24.04,1.08.04,2.16-.1,3.23-.09.72-.11,1.46.4,2.03.73.82,1.54,1.57,1.77,2.72.03.15.23.3.39.37,1.16.57,1.53,1.63,1.65,2.79.22,2.11.6,4.16,1.61,6.06.31.57.45,1.24.45,1.91,0,.78.16,1.52.46,2.23.25.59.26,1.19.13,1.78-.14.6-.14,1.2-.12,1.81.04,1.04.42,1.46,1.43,1.67,1.05.22,1.56.75,1.68,1.8.05.44.02.9.08,1.34.15,1.01.24,2.05.97,2.86.25.28.54.55.95.37.36-.16.44-.5.44-.86,0-.84,0-1.69.01-2.53,0-1.22.11-2.45.69-3.53,1.02-1.9,1.53-3.88,1.4-6.06-.11-1.86.59-3.43,1.82-4.88,1.53-1.81,2.17-3.95,1.54-6.33-.12-.44-.12-.89-.07-1.33.19-1.7.48-3.38.92-5.04.12-.46.32-.89.58-1.29.17-.26.4-.54.77-.43.31.1.37.42.38.72.01.42.05.85,0,1.26-.18,1.77.18,3.29,1.67,4.48.83.67,1.05,1.7.67,2.75-.42,1.17-.62,2.41-1.08,3.54-.98,2.4-.75,4.72.1,7.07.27.75.39,1.53.31,2.33-.35,3.44.1,6.67,2.48,9.4.62.71.7,1.54.38,2.44-.37,1.05-.47,2.15-.54,3.25-.03.48.03,1.02.56,1.21,1.13.4,1.29,1.23,1.17,2.26-.17,1.39.31,2.47,1.64,3.09,1.25.59,1.56,1.59,1.26,2.89-.12.51-.16,1.05,0,1.68.16-.2.24-.3.31-.4.2-.29.41-.58.81-.53.4.05.42.43.51.72.11.38.24.72.65,1.1.05-.82-.26-1.45-.28-2.11-.05-1.78-.51-3.41-1.59-4.86-.72-.97-.73-2.12-.56-3.26.08-.54.23-1.08.35-1.62.2-.97.12-1.88-.6-2.66-.96-1.04-1.35-2.25-1.05-3.64.29-1.31.02-2.49-.61-3.64-.92-1.67-.87-3.29.04-5.03.83-1.57,1.16-3.33.54-5.12-.19-.57-.2-1.13-.04-1.71.13-.48.24-.97.3-1.47.11-.88.3-1.76-.54-2.48-.34-.29-.56-.81-.51-1.29.14-1.37-.23-2.72-.15-4.08.07-1.11-.17-2.15-.62-3.15-.5-1.13-.74-2.28-.71-3.52.07-2.8-.27-5.56-1.05-8.26-.95-3.29-.6-6.58.28-9.81.58-2.13,1.67-4.09,2.47-6.15.24-.64.56-1.26.49-1.97-.02-.25-.06-.55-.33-.68-.32-.14-.47.15-.66.31-.29.24-.53.54-.66.88-.53,1.47-1.54,2.62-2.54,3.77-.46.52-.82,1.08-.84,1.82-.05,2.98-1.25,5.49-3.18,7.71-.33.38-.53.83-.72,1.3-1.21,3.04-1.51,6.33-2.48,9.44-.41,1.32-.89,2.51-1.86,3.49-.64.65-1.14,1.4-1.4,2.26-.74,2.45-1.36,4.92-1.23,7.52.07,1.48.02,2.95-.18,4.42-.16,1.17-.35,2.35-.95,3.4-.21.37-.52.55-.91.47-.36-.08-.66-.37-.61-.73.2-1.23-.49-2.29-.61-3.43-.24-2.32-.66-4.64-.57-7,.04-1.11.05-2.21.06-3.32,0-.38,0-.81-.38-.98-1.07-.49-.95-1.35-.84-2.27.11-.84.18-1.71-.42-2.41-.54-.63-.68-1.34-.64-2.13.04-.76.03-1.52.14-2.29.15-1.02-.01-1.93-.93-2.59-.54-.39-.75-.98-.75-1.66-.01-1.98.45-3.86,1.12-5.7.44-1.18.86-2.37,1.08-3.62.07-.38.03-.74-.42-.9-.41-.14-.56.16-.74.42-.29.41-.59.81-.88,1.21-.77,1.08-1.4,2.18-1.48,3.59-.06,1.03-.43,2.04-1.24,2.83-.7.69-1.14,1.56-1.31,2.56-.08.46-.26.91-.42,1.35-.13.36-.37.66-.8.66-.46,0-.61-.38-.72-.73-.12-.35-.18-.72-.28-1.13-.48.32-.63.77-.93,1.09-.22.23-.39.55-.77.41-.37-.14-.3-.51-.33-.82-.05-.58.15-1.14.13-1.74Z"/>
  <path class="cls-2" d="m258.89,63.02c-1.05-.89-.97-1.73.22-2.33,1.35-.68,2.85-.91,4.24-1.48.72-.3,1.19-.65.96-1.5-.39-1.44.13-2.75.63-4.06.54-1.41.89-2.86,1.2-4.33.05-.25.11-.42-.25-.51-1.03-.26-1.53-.82-1.52-1.9.03-2.02-.46-3.89-1.24-5.74-.6-1.43-.48-3-.51-4.53-.04-1.65.04-3.3-.45-4.93-.27-.9-.12-1.89-.04-2.83.03-.33.15-.7.44-.8.73-.27.61-.83.64-1.4.08-1.51.06-3-.23-4.49-.04-.23-.05-.47-.02-.71.06-.49.2-.96.78-1.05.53-.08.82.28,1.03.7,1.37,2.68,2.4,5.45,3.11,8.4.46,1.92.9,4.02,2.59,5.46.84.72.7,1.83.81,2.81.17,1.5.03,3,0,4.5,0,.44.08.83.36,1.18.36.46.64.96.6,1.59-.02.25.11.45.28.63,1.13,1.2,1.83,2.52,1.06,4.24.42-.04.47-.35.62-.54.42-.55.93-.95,1.61-1.05,2.14-.32,3.92-1.66,6.01-2.12.24-.05.46-.25.65-.42.65-.58,1.35-1.07,2.16-1.43.82-.37,1.56-.88,2.17-1.56.92-1.04,2.09-1.65,3.36-2.14.66-.26,1.27-.64,1.92-.92.64-.27,1.28-.23,1.71.37.43.59,0,1.05-.39,1.44-1.59,1.54-3.19,3.06-4.91,4.45-.43.34-.9.66-1.39.89-1.49.68-2.47,2.05-3.89,2.82-.86.46-1.73.9-2.57,1.39-.43.25-.81.56-.98,1.08-.74,2.2-2.42,3.47-4.49,4.23-1.41.51-2.71,1.14-3.75,2.23-.25.26-.57.53-.68.86-.58,1.62-1.88,2.55-3.22,3.46-1.22.83-2.41,1.69-3.61,2.55-1,.72-1.7,1.65-1.89,2.89-.12.76-.64,1.25-1.12,1.77-1.46,1.57-2.78,3.23-3.58,5.25-.2.5-.52.94-.97,1.22-1.21.76-2.07,1.86-2.98,2.91-.91,1.03-1.9,1.97-2.99,2.8-1.01.78-2.24.92-3.43,1.09-1.9.27-3.4,1.15-4.7,2.51-.78.81-1.68,1.52-2.51,2.28-.35.32-.77.46-1.22.49-.98.07-1.61-.7-1.33-1.64.21-.69.54-1.35,1.07-1.82,1.8-1.61,3.47-3.39,5.61-4.58.23-.13.46-.25.7-.36,1.21-.58,2.26-1.29,2.83-2.6.35-.81,1.02-1.4,1.82-1.81.49-.25.81-.54,1-1.12.3-.92,1.19-1.37,1.88-1.97.9-.78,1.77-1.57,2.53-2.49.35-.43.39-.79.1-1.27-.79-1.32-.73-1.88.28-3.04.85-.99,1.88-1.76,3-2.41.32-.19.62-.39.94-.59Zm5.08-41.56c-.29.27-.19.52-.15.73.37,1.8.15,3.63.18,5.44,0,.43-.08.83-.53.96-.53.16-.55.53-.58.98-.07,1.2.17,2.34.43,3.5.36,1.6.18,3.26.17,4.89-.01,1.54.29,2.97.96,4.35.16.33.24.7.35,1.05.38,1.17.32,2.4.41,3.6.04.49.16.88.72.97,1.05.18,1.19.41,1.01,1.48-.28,1.61-.66,3.2-1.3,4.71-.56,1.31-.69,2.65-.47,4.02.14.85-.17,1.31-.96,1.64-1.48.63-3.03,1.05-4.55,1.57-.28.1-.56.24-.58.57-.01.3.29.33.49.44.67.36.69.8.05,1.24-.26.18-.54.33-.81.49-1.17.67-2.3,1.41-3.17,2.45-.83.99-.95,1.15-.22,2.2.52.74.42,1.42-.14,2.09-.73.87-1.54,1.66-2.39,2.41-.87.77-2,1.32-2.22,2.65-.05.32-.41.42-.65.53-1.06.48-1.79,1.27-2.28,2.3-.39.82-1.02,1.37-1.81,1.8-1.43.77-2.93,1.47-4.1,2.64-1.15,1.15-2.61,1.98-3.49,3.39-.24.39-.69.86-.24,1.26.47.41.91-.11,1.31-.38.02-.01.04-.03.06-.05.86-.81,1.74-1.6,2.59-2.43,1.2-1.18,2.59-2.05,4.26-2.21,2.43-.23,4.3-1.35,5.88-3.15,1.14-1.3,2.19-2.7,3.68-3.66.33-.21.52-.57.69-.94.72-1.62,1.65-3.11,2.86-4.42.93-1,1.85-1.98,2.1-3.44.14-.81.78-1.43,1.45-1.92,1.7-1.24,3.41-2.47,5.12-3.69.66-.47,1.22-1,1.54-1.76.29-.69.75-1.25,1.28-1.78,1.12-1.14,2.47-1.83,3.96-2.35,1.71-.6,3.16-1.6,3.84-3.38.31-.81.77-1.39,1.49-1.86,1.12-.74,2.43-1.14,3.49-1.99.65-.53,1.18-1.22,1.94-1.6,2.76-1.38,4.8-3.65,7.04-5.68.15-.14.37-.32.24-.53-.17-.27-.43-.08-.63.01-.77.35-1.5.77-2.29,1.06-1.07.39-1.96,1-2.72,1.83-.65.71-1.5,1.14-2.3,1.65-1.79,1.14-3.57,2.24-5.63,2.89-.88.28-1.72.78-2.66.94-.99.17-1.77.58-2.26,1.51-.36.69-.99,1.15-1.65,1.55-.24.15-.49.2-.73-.02-.23-.21-.1-.44,0-.65.13-.29.33-.55.42-.85.29-.93.89-1.85.35-2.88-.6-1.14-1.61-2.08-1.74-3.46,0-.07-.08-.13-.14-.19-.39-.44-.5-.96-.49-1.54.02-1.48.05-2.95,0-4.43-.04-1.19-.17-2.36-1.3-3.14-.43-.3-.59-.84-.81-1.33-1.24-2.77-1.61-5.82-2.74-8.62-.48-1.18-1.04-2.31-1.66-3.47Zm9.61,28.66s-.04.03-.05.05c0,.02.02.04.04.06.02-.02.04-.03.05-.05,0-.02-.02-.04-.04-.06Z"/>
  <path class="cls-2" d="m227.74,36.02c.51-1.51,1.67-2.47,2.58-3.62.91-1.14,1.7-1.29,2.95-.58.75.43,1.54.5,2.37.32.97-.22,1.76.09,2.41.81.64.7.75,1.34.27,2.15-.26.44-.18.7.08,1.11.55.86,1.18,1.68,1.68,2.56,1.44,2.55.46,5.01-2.28,6.28-.92.43-1.89.71-2.68,1.42-.48.43-1.12.69-1.73.92-.27.1-.56.23-.58.58-.01.33.21.54.48.67,1.34.61,2.09,1.81,2.89,2.95.47.66.65,1.47.45,2.27-.2.78,0,1.42.45,1.99,1.4,1.78,1.92,3.78,1.63,6-.23,1.8.15,3.44,1.06,4.99.4.68.47,1.44.48,2.21.01.65-.28,1.13-.84,1.4-.56.27-1.12.19-1.63-.18-.83-.61-1.3-1.45-1.45-2.44-.17-1.07-.4-2.12-.87-3.1-.28-.59-.34-1.21-.27-1.85.15-1.37-.2-2.52-1.25-3.48-1-.92-1.48-2.22-2.32-3.27-.41-.52-.8-1.04-1.34-1.43-.65-.47-.91-1.13-.91-1.91,0-1.07,0-2.14,0-3.29-.54.4-.73.87-.61,1.71.15,1.08.09,2.16.14,3.23.06,1.21-.12,2.36-.71,3.43-.45.84-.61,1.72-.56,2.67.04.71-.02,1.42-.3,2.09-.34.79-.99,1.17-1.75,1.01-.78-.16-1.27-.66-1.13-1.54.29-1.89-.2-3.77,0-5.64.04-.39.17-.77.26-1.15.16-.69.19-1.35-.2-1.98-.73-1.17-.67-2.33.03-3.5.22-.36.42-.73.43-1.17.02-.63,0-1.14-.74-1.46-.88-.38-1.14-1.26-1.17-2.17-.03-.93.16-1.84.43-2.72.35-1.14.44-2.27.1-3.42-.06-.2-.12-.43-.07-.62.32-1.21.17-2.47.33-3.69.13-.95.17-1.88.13-2.83-.05-1.1.45-1.71,1.41-1.83.77-.1,1.35.4,1.62,1.41.23.88.13,1.78.18,2.67.04.68.1,1.36.55,2.04Zm8.25,26.28c0,.79-.1,1.4.18,1.97.52,1.05.77,2.17.94,3.33.1.68.38,1.32.91,1.8.3.27.65.47,1.08.25.4-.21.39-.58.34-.96-.1-.66-.25-1.3-.58-1.87-.75-1.32-1.15-2.7-.96-4.23.06-.52,0-1.06.05-1.58.14-1.61-.38-3-1.28-4.3-.16-.24-.32-.48-.47-.73-.38-.6-.56-1.22-.4-1.95.14-.65.16-1.34-.25-1.91-.76-1.06-1.45-2.19-2.72-2.78-.58-.27-.85-.82-.81-1.5.03-.67.45-.98.99-1.19.69-.26,1.37-.58,1.92-1.07.69-.61,1.46-.97,2.36-1.19,1.5-.37,2.64-2.18,2.56-3.71-.1-1.67-1.45-2.62-2.14-3.95-.38-.74-.64-1.27-.13-1.98.33-.46.19-.86-.16-1.27-.54-.63-1.23-.55-1.9-.44-.99.16-1.91,0-2.71-.55-.68-.47-1.22-.28-1.67.25-1.05,1.27-2.29,2.41-2.86,4.03-.09.27-.27.51-.43.75-.13.2-.25.42-.56.32-.25-.09-.44-.28-.43-.52.07-1.33-.61-2.55-.5-3.89.05-.59.05-1.2-.13-1.8-.14-.5-.3-.95-.93-.8-.6.14-.56.65-.48,1.09.14.85-.06,1.67-.11,2.5-.1,1.56-.44,3.12-.21,4.69.12.82.14,1.61.02,2.43-.16.99-.55,1.92-.63,2.93-.09,1.11.16,1.69,1.13,2.18.42.21.61.53.73.96.29,1.03-.07,1.93-.56,2.78-.47.81-.48,1.59,0,2.39.52.87.56,1.79.33,2.74-.09.38-.23.77-.26,1.15-.13,1.75.38,3.49,0,5.25-.09.4,0,.83.54.87.51.03.76-.29.86-.75.12-.54.21-1.09.16-1.65-.1-1.09.22-2.07.69-3.03.38-.78.63-1.61.59-2.51-.06-1.21.05-2.42-.16-3.63-.1-.59.05-1.16.23-1.71.18-.52.48-1.01,1.1-.97.71.05.85.64.88,1.21.05.89.08,1.78.07,2.67,0,.7.11,1.29.72,1.73.67.48,1.13,1.17,1.62,1.82.73.96,1.18,2.13,2.09,2.96,1.05.96,1.5,2.13,1.34,3.36Z"/>
  <path class="cls-2" d="m243.77,71.27c.02-1.44.23-2.65.5-3.86.41-1.86.54-3.72-.11-5.59-.31-.91-.15-1.89.28-2.77.2-.41.22-.76,0-1.19-.59-1.22-.99-2.46-.07-3.72.06-.08.06-.21.05-.31-.11-1.07.23-2.02.72-2.94.17-.32.57-.82-.42-.71-.81.1-1.5-.58-2.21-.96-.49-.26-.95-.43-1.49-.4-.4.02-.79-.04-1.14-.24-.57-.31-.99-.75-.85-1.45.14-.7.65-1.12,1.34-1.13.73,0,1.33-.21,1.88-.66.46-.38,1.03-.37,1.59-.37.77,0,1.12-.4,1.06-1.14-.11-1.39-.04-2.71.68-3.98.36-.64.1-1.45.19-2.19.06-.47.05-.97.27-1.39.69-1.34.85-2.8,1.05-4.26.09-.63.3-1.21.63-1.77.7-1.17,1.34-2.37,1.86-3.64.54-1.33,1.38-1.92,2.54-1.87.92.05,1.38.55,1.33,1.49-.05.99-.57,1.79-1.03,2.62-.38.69-.8,1.36-1.19,2.05-.2.35-.23.72.12,1,1.24.97,1.32,2.24.81,3.56-.45,1.16-.69,2.35-.9,3.57-.32,1.81-.89,3.57-1.55,5.29-.12.31-.4.66-.15.95.25.29.65.1.98.04.6-.12,1.2-.16,1.81-.14.61.02,1.09.25,1.26.87.11.39.26.37.61.28,1.35-.36,2.55-.08,3.5,1,.26.29.6.32.94.33.8,0,1.49.33,2.13.75,1.07.72,1.03,1.81-.1,2.44-.38.21-.57.34-.5.86.09.7-.49.99-1.13,1.04-1.07.08-2.04-.24-2.88-.88-.52-.4-1-.48-1.66-.38-1.3.2-2.63.21-3.68-.87-.24-.25-.56-.55-.97-.35-.44.21-.31.64-.25.98.24,1.64.24,3.25-.52,4.79-.17.35.05.72.1,1.08.22,1.41.24,2.78-.66,4.01-.25.35-.32.78-.34,1.2-.09,2.08-.45,4.14-.52,6.22-.03.97-.38,1.91-.7,2.82-.33.92-.58,1.86-.81,2.8-.09.38-.28.69-.7.76-.46.07-.74-.17-.97-.53-.67-1.03-.68-2.19-.71-3.15Zm5.02-19.6c0-.47-.02-.84,0-1.21.06-.77.67-1.23,1.42-1.08.4.08.77.23,1.04.53.83.93,1.96,1,2.99.76,1.04-.24,1.8.03,2.56.61.5.38,1.09.53,1.68.65.38.08.93.15.64-.62-.16-.42,0-.77.49-.9.23-.06.44-.17.65-.29.58-.33.61-.69.06-1.06-.53-.35-1.12-.58-1.77-.59-.54,0-1.02-.15-1.42-.57-.89-.95-2.14-1.11-3.3-.49-.87.47-1.06.37-1.01-.63.03-.67-.26-.85-.84-.78-.63.07-1.25.16-1.88.23-1,.12-1.59-.5-1.38-1.46.07-.33.18-.66.31-.98.42-1.08.74-2.19,1.07-3.3.54-1.81.47-3.75,1.37-5.48.34-.65.39-1.54-.3-2.12-1.07-.9-1.11-1.76-.3-3.06.61-.98,1.24-1.96,1.64-3.05.13-.36.33-.78-.09-1.07-.42-.29-.85-.18-1.25.11-.5.36-.7.9-.95,1.42-.5,1.04-1,2.08-1.58,3.08-.37.65-.67,1.3-.79,2.04-.19,1.11-.1,2.28-.67,3.3-.53.96-.63,1.99-.58,3.06.02.56-.03,1.1-.31,1.6-.59,1.05-.66,2.16-.58,3.36.08,1.15-.23,2.17-1.88,2.1-.56-.02-1.05.12-1.46.49-.42.38-.89.53-1.45.5-.39-.02-.9-.06-.96.46-.06.54.41.71.85.7,1.26-.03,2.26.6,3.29,1.19.29.17.56.25.9.18.95-.22,1.21.01,1.17,1.01-.01.47-.2.87-.41,1.26-.37.69-.59,1.4-.54,2.2.01.21.03.47-.08.62-.84,1.17-.37,2.26.16,3.34.24.5.21.93-.02,1.42-.41.88-.57,1.8-.22,2.76.59,1.61.53,3.26.19,4.9-.33,1.57-.71,3.13-.67,4.75.02.71.11,1.42.42,2.07.07.14.13.32.31.31.21-.02.18-.22.2-.37.07-.72.31-1.38.53-2.06.29-.87.67-1.73.74-2.65.14-1.97.45-3.92.5-5.9.02-.76.06-1.56.52-2.2.71-1,.76-2.08.6-3.23-.08-.61-.36-1.25-.05-1.86.66-1.31.63-2.69.45-3.99Z"/>
  <path class="cls-2" d="m202.82,55.73c-.16-1.55.39-2.9,0-4.27-.17-.61-.36-1.2-.71-1.73-1.01-1.52-1.01-2.85.12-4.28.6-.76.93-1.55,1.03-2.49.19-1.79,1.16-3.07,2.7-3.93.54-.3.94-.69,1.27-1.23.74-1.21,1.63-2.32,2.79-3.18,1.08-.8,2.32-1.05,3.59-.78,2.05.44,3.73,1.51,4.97,3.24.06.09.14.17.16.27.36,1.99,1.54,3.81,1.25,5.95-.12.88-.4,1.69-.79,2.46-.6,1.19-.73,2.25.27,3.4.77.89,1.55,1.87,1.65,3.17.12,1.63-.68,2.89-1.65,4.05-.47.56-.96,1.12-1.39,1.71-.94,1.3-2.15,2.29-3.55,3.06-.33.18-.71.37-1.05.29-.99-.22-1.85.13-2.75.41-.93.28-1.65-.08-2.07-.97-.18-.39-.4-.63-.82-.74-.53-.14-1.03-.38-1.46-.75-.37-.31-.81-.51-1.31-.43-1.53.26-2.14-.78-2.25-1.99-.04-.47,0-.95,0-1.24Zm.89-.23c0,.41-.03,1.02,0,1.62.04.79.38,1.07,1.17,1.03.56-.03,1.1-.03,1.59.31.63.43,1.27.84,2.03,1.01.35.08.56.35.72.67.51,1.02.76,1.11,1.87.72.52-.18,1.04-.5,1.59-.32.78.25,1.4-.05,1.99-.45,2.28-1.5,3.79-3.69,5.22-5.92.57-.88.58-1.91.05-2.86-.33-.59-.67-1.21-1.14-1.7-1.16-1.2-1.28-2.5-.49-3.89,1.63-2.83.38-5.49-.43-8.18-.02-.07-.08-.13-.13-.19-1.1-1.39-2.52-2.3-4.26-2.67-1.02-.22-1.99-.08-2.87.52-1.22.84-2.08,2-2.84,3.24-.31.51-.69.89-1.22,1.18-1.33.72-2.26,1.75-2.49,3.34-.15,1.03-.32,2.05-1.11,2.89-1.04,1.11-1.06,2.18-.2,3.44.56.83.83,1.74.96,2.72.15,1.11-.17,2.2-.04,3.5Z"/>
  <path class="cls-2" d="m39.85,18.85c-.02.42,0,.61-.04.79-.24,1.25-.08,2.3,1,3.22.85.73.76,1.9.49,2.9-.35,1.31-.32,2.59-.15,3.91.2,1.56-.16,2.99-1.25,4.17-.55.59-.8,1.24-.72,2.07.12,1.14-.05,2.22-1.16,2.9-.39.24-.33.7-.4,1.07-.22,1.2-.53,2.36-1.2,3.4-.73,1.13-1.71,1.84-3.1,1.89-.91.03-1.54.43-1.88,1.3-.35.9-1.02,1.51-1.91,1.9-.23.1-.54.19-.42.55.09.28.31.4.62.37.78-.05,1.27.39,1.69.97.51.71.89,1.49,1.25,2.28.17.38.32.71.85.35.38-.26.8-.11,1.16.19.27.23.45.51.6.82.39.8.6,1.54,1.93,1.16,1.22-.35,2.17.71,2.93,1.66.7.88,1.07,1.93,1.5,2.94.16.37.34.73.7.92,1.89.96,2.7,2.66,3.1,4.61.18.89.64,1.47,1.51,1.75.95.31,1.37,1.12,1.73,1.95.46,1.07,1.28,1.69,2.32,2.12,1.4.58,2.27,1.63,2.36,3.17.06,1.06.43,1.9,1.23,2.62,2.14,1.93,3.18,4.49,3.81,7.21.21.91.19,1.88.35,2.81.08.5-.09.95-.63,1.15-.5.19-.86-.05-1.18-.41-.05-.06-.11-.12-.15-.19-.69-1.35-1.59-2.46-3.15-2.88-.2-.06-.42-.27-.52-.46-.84-1.59-2.1-2.89-2.91-4.49-.34-.68-.56-1.37-.45-2.13.1-.64-.17-1.06-.68-1.39-.24-.16-.46-.36-.72-.49-1.85-.9-3.02-2.42-3.78-4.27-.28-.69-.68-1.06-1.5-1.15-1.23-.13-1.98-1-2.5-2.07-.38-.78-.75-1.57-1.11-2.35-.25-.55-.63-.76-1.2-.46-1.71.91-2.83.54-3.25-1.65-.15-.8-.66-1.48-1.08-2.18-.22-.37-.54-.58-.98-.53-.67.07-1.17-.23-1.58-.71-.51-.6-1-.73-1.65-.13-.68.63-1.27.53-1.93-.12-.56-.55-.77-1.31-1.21-1.93-.24-.34-.48-.69-.71-1.04-.47-.73-1.07-1.01-1.95-.75-1.14.33-1.97-.32-2.74-1.03-.31-.28-.59-.6-.88-.91-.31-.32-.6-.78-1.11-.48-.49.28-.71.77-.62,1.35.08.55.24,1.09.52,1.56.59,1.02.8,2.05.19,3.15-.22.39-.09.77.11,1.13.88,1.58.77,3.15-.13,4.66-.63,1.06-.63,2.02.12,3,.22.29.38.63.61.92.86,1.09.89,2.26.4,3.5-.52,1.32-.41,2.57.43,3.74.47.66.4,1.39.1,2.11-.08.19-.18.41-.34.53-1.41,1.08-1.46,2.53-1.22,4.1.07.49.08,1-.17,1.47-.41.79-1.14.97-1.83.4-.69-.58-1.11-1.33-1.16-2.25-.01-.24-.04-.48,0-.71.19-1.28-.1-2.32-1.35-2.97-.43-.22-.57-.68-.55-1.15,0-.32.07-.63.08-.94.04-1.4.26-2.8-.83-4.01-.65-.73-.54-1.87-1.13-2.67-.96-1.31-1.01-2.78-.8-4.3.04-.28.08-.61.25-.82,1.12-1.48.53-2.95-.36-4.08-1.1-1.39-1.19-2.59-.57-4.18.66-1.69.11-3.43-.41-5.1-.25-.8-.56-1.59-.84-2.38-.26-.72-.29-1.45-.08-2.17.17-.6,0-1.08-.36-1.54-.28-.35-.55-.7-.84-1.05-.72-.88-.94-1.87-.68-2.96.08-.34.21-.72.04-1.01-.63-1.06-.49-2.32-.9-3.43-.31-.84.03-1.62.27-2.39.51-1.62.22-3-1.03-4.18-.36-.34-.69-.72-1.02-1.1-1.18-1.32-1.53-2.85-1.12-4.56.08-.33.12-.68.22-1,.58-1.83.49-3.39-1.23-4.71-1.06-.81-1.18-2.77-.56-3.87.41-.72.91-.96,1.63-.59.62.32.98.09,1.34-.36.79-.99,1.81-1.66,2.95-2.2.68-.32,1.38-.45,2.06-.15,1.77.77,3.22.15,4.59-.95.94-.76,1.94-1.45,2.85-2.24,1.85-1.6,5.06-1.35,6.57-.42,1.9,1.18,4.05,1.91,5.87,3.23.52.38,1.13.16,1.69.12,1.72-.15,2.17.22,2.3,1.96.09,1.14.37,1.41,1.37.9,2.08-1.07,4.42.99,4.2,2.95-.04.34,0,.68,0,.79Zm-.84.09h.03c0-.11,0-.21,0-.32.03-2.51-1.05-3.32-3.43-2.56-1.22.39-2-.15-2.1-1.44-.12-1.62-.28-1.76-1.88-1.51-.57.09-1.16.12-1.61-.19-1.69-1.2-3.65-1.88-5.39-2.96-2.12-1.32-4.48-1.26-6.47.21-.87.64-1.72,1.3-2.56,1.98-1.64,1.31-3.39,2.01-5.48,1.12-.37-.16-.77-.09-1.16.06-1.24.46-2.27,1.2-3.1,2.22-.47.57-.99.9-1.79.57-.77-.32-1-.13-1.12.71-.18,1.28.31,2.26,1.32,3.02.76.57,1.04,1.35,1.08,2.27.04.93-.15,1.83-.39,2.72-.38,1.41-.54,2.81.4,4.08.41.55.87,1.06,1.36,1.53,1.13,1.1,1.7,2.39,1.44,3.98-.1.57-.24,1.13-.39,1.69-.12.49-.3.97,0,1.45.24.38.29.78.23,1.21-.06.38.04.73.24,1.05.44.71.55,1.52.34,2.29-.29,1.11.11,1.96.77,2.76.22.26.46.51.66.78.41.58.62,1.19.44,1.93-.19.78-.14,1.54.18,2.31.38.92.7,1.88.96,2.84.52,1.97.68,3.94-.18,5.88-.22.49-.16.96.2,1.4.69.84,1.18,1.79,1.52,2.83.31.94.27,1.79-.26,2.64-.74,1.16-.79,2.59-.22,3.63.8,1.47.98,3.25,2.25,4.47.14.13.22.38.22.58,0,1.13.33,2.24.07,3.38-.11.47-.16,1,.4,1.33,1.27.74,1.68,1.87,1.47,3.28-.03.23-.02.47,0,.71.04.65.29,1.22.74,1.7.33.36.57.33.73-.15.14-.41.12-.84.04-1.25-.27-1.52-.23-2.94,1.16-3.98.16-.12.25-.33.37-.51.38-.56.39-1.09-.03-1.67-.85-1.2-1.02-2.58-.51-3.91.53-1.38.42-2.51-.53-3.65-1.17-1.41-1.37-2.91-.3-4.56.75-1.16.65-2.47-.06-3.68-.38-.65-.41-1.29-.03-1.94.36-.6.32-1.16-.01-1.78-.46-.88-.89-1.78-.82-2.84.07-.9.59-1.47,1.33-1.81.66-.31,1.14.16,1.57.61.22.23.46.44.67.67.86.97,1.84,1.52,3.21,1.13.55-.16,1.07.1,1.48.55.84.92,1.45,1.99,2.04,3.08.45.83.68.87,1.38.33.98-.75,1.33-.74,2.24.11.35.33.7.68,1.21.67,1.03-.03,1.58.57,2,1.4.36.7.73,1.4.96,2.16.42,1.41.68,1.53,2.02.93.07-.03.14-.07.21-.1.92-.39,1.41-.26,1.91.62.45.8.86,1.63,1.23,2.47.49,1.1,1.25,1.8,2.49,1.91.58.05.98.36,1.25.85.23.42.44.84.64,1.27.59,1.2,1.33,2.26,2.55,2.91.53.28,1.03.63,1.51,1.01.65.51,1.1,1.11.88,2.03-.1.43.03.87.2,1.3.52,1.32,1.56,2.31,2.23,3.52.57,1.02,1.27,1.75,2.4,2.11.55.17.95.64,1.24,1.17.26.46.55.9.84,1.33.08.12.22.28.39.16.07-.05.11-.26.07-.36-.32-.83-.2-1.72-.39-2.56-.6-2.67-1.68-5.09-3.76-6.97-.8-.72-1.23-1.59-1.22-2.71.02-1.23-.65-2.16-1.74-2.59-1.47-.59-2.49-1.53-3.08-2.98-.17-.42-.37-.9-.81-1.03-1.62-.45-2.2-1.68-2.5-3.14-.31-1.47-1.07-2.61-2.41-3.34-.52-.29-.88-.72-1.12-1.28-.41-.94-.76-1.91-1.35-2.76-.9-1.3-1.76-1.66-3.19-1.24-.59.17-.97,0-1.21-.55-.24-.53-.47-1.05-.82-1.52-.25-.34-.49-.47-.81-.1-.52.6-.87.36-1.18-.23-.49-.93-.97-1.87-1.51-2.77-.26-.44-.59-.87-1.24-.83-.56.04-1.52-.66-1.58-1.15-.09-.68.47-.95.95-1.21.76-.41,1.46-.86,1.77-1.71.41-1.1,1.22-1.58,2.36-1.65.95-.06,1.76-.41,2.36-1.23.76-1.03,1.11-2.19,1.32-3.42.08-.48,0-1.07.48-1.37,1.1-.68,1.19-1.71,1.09-2.83-.06-.65,0-1.28.51-1.76,1.3-1.24,1.64-2.79,1.37-4.49-.2-1.25-.1-2.45.24-3.66.22-.79.35-1.73-.37-2.3-1.2-.96-1.43-2.11-1.14-3.51.06-.28,0-.58,0-.87Z"/>
  <path class="cls-2" d="m84.36,39.39c.51-.44,1-.67,1.53-.85.84-.28,1.52-.81,2.14-1.44.81-.81,1.65-1.52,2.94-1.46.64.03,1.01-.61,1.44-1.02,2.22-2.08,4.4-4.23,7.17-5.61.5-.25,1.03-.4,1.59-.44.55-.04,1.07.04,1.32.63.27.64,0,1.21-.51,1.51-.93.54-1.61,1.34-2.43,2-.27.22-.54.45-.66.77-.59,1.51-1.71,2.54-3.14,3.18-1.51.68-2.32,1.87-2.71,3.37-.37,1.39-1.14,2.41-2.38,3.09-1.03.57-2.02,1.22-3.2,1.49-1.23.29-1.67,1.49-1,2.58,1.17,1.89,2.34,3.79,3.69,5.56.45.6.96.99,1.71,1.15,2.14.46,2.53.9,2.78,3.1.11.99.55,1.81,1.11,2.58.58.79.9,1.67.99,2.63.3,3.28,1.23,6.4,2.41,9.45.31.79.43,1.63.46,2.47.05,1.41-.52,1.81-1.89,1.31-.05.37-.08.74-.16,1.09-.15.64-.58,1.03-1.24,1.02-.61,0-1.02-.36-1.17-.98-.03-.13-.09-.26-.08-.39.17-1.49-.62-2.8-.81-4.23-.12-.86-.52-1.59-1.03-2.27-.72-.96-1.18-2.04-1.51-3.19-.32-1.13-.82-2.16-1.78-2.91-.77-.6-1.15-1.44-1.24-2.39-.16-1.71-.98-3.15-1.77-4.6-.07-.13-.18-.3-.3-.35-.76-.29-1.01-.93-1.25-1.62-.23-.69-.4-.72-.86-.15-.39.49-.82.83-1.48.68-.4-.09-.49.12-.54.46-.3,1.76-.63,3.52-.93,5.29-.21,1.2-.55,2.35-1.1,3.44-.54,1.05-.61,2.27-1.26,3.3-.32.5-.52,1.08-1.23,1.02-.65-.05-.66-.65-.93-1.09-1.23-2.08-.23-3.95.39-5.87.47-1.46.47-3.01.83-4.5.17-.71.23-1.45.33-2.18.08-.61.03-1.16-.39-1.7-.48-.62-.25-1.38.12-1.94.68-1.03.72-2.2.85-3.31.1-.89.13-1.77.53-2.6.11-.22.28-.57.03-.73-.33-.22-.4.22-.56.38-.4.42-.76.87-1.14,1.31-.37.43-.78.86-1.41.61-.68-.26-1.01-.84-1.04-1.55-.03-.81.25-1.57.56-2.29.57-1.33,1.04-2.66,1.13-4.14.09-1.34.71-2.58,1.08-3.87.98-3.38,1.42-6.8.77-10.3-.1-.53-.04-1.05.13-1.56.26-.81,1-1.14,1.74-.72.5.27.8.3,1.16-.22.38-.55.97-.82,1.66-.61.67.2.89.76,1.04,1.37.35,1.42.12,2.77-.42,4.09-.38.92-.8,1.82-.26,2.84.14.26.11.62.11.93,0,.76.13,1.46.42,2.21.48,1.22.27,2.51-.32,3.67-.42.83-.35,1.6-.01,2.5Zm-6.18,28.38c.09-.17.17-.36.29-.52.6-.87.61-1.97,1.07-2.86.79-1.53,1.17-3.14,1.43-4.81.24-1.51.52-3.01.82-4.5.09-.48.35-1.04.92-.84.73.25,1.03-.09,1.41-.58.51-.65,1.38-.6,1.76.14.41.81.76,1.63,1.58,2.13.04.03.07.08.1.12.89,1.53,1.76,3.06,1.94,4.87.09.87.39,1.63,1.1,2.19.97.76,1.54,1.8,1.84,2.97.37,1.4,1.05,2.63,1.87,3.8.21.3.46.62.52.97.31,1.76,1.08,3.41,1.12,5.22,0,.28,0,.64.42.61.4-.02.39-.36.4-.65.03-.71.06-1.42-.08-2.13-.08-.38-.15-.83.27-.95.48-.13.52.39.67.71.11.24.21.49.36.7.16.22.3.6.64.48.29-.1.18-.46.17-.71-.03-.85-.26-1.66-.56-2.45-1.02-2.74-1.93-5.51-2.21-8.44-.12-1.29-.42-2.5-1.21-3.53-.67-.87-.95-1.86-1.04-2.93-.1-1.25-.52-1.72-1.77-1.93-1.13-.19-1.95-.77-2.63-1.69-1.34-1.82-2.55-3.71-3.72-5.64-.86-1.42-.14-3.11,1.44-3.63,2.47-.81,4.77-1.83,5.43-4.79.29-1.3,1.14-2.25,2.39-2.87,1.22-.61,2.44-1.29,3.02-2.65.29-.67.75-1.18,1.3-1.66.67-.59,1.28-1.25,2.08-1.67.24-.13.45-.35.34-.64-.12-.33-.46-.23-.69-.17-.59.14-1.13.41-1.67.71-2.44,1.36-4.41,3.3-6.4,5.2-.57.54-1.09,1.2-1.98,1.15-.69-.04-1.3.18-1.7.68-1.34,1.71-3.56,2.1-5.11,3.48-.27.24-.62.16-.63-.23-.04-1.41-.63-2.81.27-4.22.51-.79.59-1.88.17-2.75-.36-.73-.43-1.44-.43-2.2,0-.42,0-.86-.2-1.24-.41-.78-.27-1.51.06-2.27.53-1.21.94-2.46.78-3.82-.06-.5-.02-1.09-.58-1.28-.56-.19-.81.36-1.12.7-.09.1-.17.2-.27.29-.34.31-.71.34-1.07.07-.28-.2-.55-.51-.9-.26-.31.23-.35.65-.31,1.01.07.63.2,1.24.28,1.87.41,2.93-.2,5.76-.86,8.58-.38,1.61-1.17,3.11-1.28,4.79-.08,1.14-.32,2.22-.88,3.24-.38.69-.58,1.47-.72,2.25-.07.39-.01.78.36.96.38.19.55-.19.75-.41.57-.62,1.13-1.25,1.7-1.87.23-.25.51-.37.85-.23.31.13.39.41.42.7.07.75-.02,1.48-.3,2.17-.16.38-.15.76-.19,1.15-.14,1.43-.14,2.89-.94,4.18-.24.39-.43.84-.06,1.24.42.46.45.99.41,1.55-.05.68-.06,1.38-.21,2.04-.48,2.1-.53,4.27-1.33,6.31-.62,1.57-1.04,3.24.32,4.81Z"/>
  <path class="cls-2" d="m70.82,58.94c-.97-.32-1.79.35-2.62.97-.65.49-1.31.87-2.18.49-.39-.17-.7.1-.94.4-.71.87-1.06,1.93-1.53,2.93-.29.62-.55,1.26-1.12,1.69-.67.51-1.39.35-1.77-.4-.35-.68-.35-1.43-.4-2.16-.04-.48-.17-.83-.57-1.14-.77-.59-1.11-1.36-.85-2.36.16-.65-.13-1-.8-1.01-.39,0-.79.1-1.18.1-.99,0-1.49-.58-1.43-1.56.04-.67.26-1.29.45-1.91.11-.36.16-.57-.35-.62-.59-.06-.81-.53-.83-1.08-.02-.85.31-1.59.79-2.27.39-.56.78-1.12,1.15-1.7.26-.4.46-.85.42-1.33-.08-.99.23-1.86.68-2.71.4-.75.65-1.54.65-2.41,0-1.48.89-2.36,2.13-2.95.26-.13.54-.24.82-.29.98-.2,1.74-.57,1.67-1.77-.02-.31.2-.61.44-.81,1.24-1.01,2.57-1.84,4.27-1.78.41.02.78.14,1.07.43.56.58,1.18.66,1.94.41.77-.25,1.59-.4,2.41-.22.55.12,1.1.32,1.29.91.2.62.02,1.17-.4,1.68-.88,1.06-2.07,1.26-3.33,1.35-.92.06-1.85-.03-2.73.32-.37.15-.71.22-.33.75.4.56.05,1-.38,1.43-1.23,1.23-2.66,2.23-3.95,3.38-.27.24-.52.53-.73.83-.62.91-.57,1.19.26,1.89.81.67.98,1.62.45,2.63-.38.72-.8,1.42-1.19,2.13-.15.28-.3.56-.4.85-.14.42-.16.85.23,1.16.39.32.74.1,1.08-.12.31-.2.62-.4.91-.63.59-.46,1.22-.6,1.92-.3.45.19.87.15,1.26-.15.49-.38.99-.29,1.48,0,.59.34,1.17.71,1.77,1.05.85.49,1.3.44,2.07-.19.57-.47,1.17-.87,1.93-.43.55.32.72,1.16.48,2.01-.52,1.83-1.77,2.67-4,2.54Zm-13.28-1.41c1.79-.05,2.29.5,2.06,2.31-.06.47.09.84.46,1.1.83.57,1.03,1.41,1.09,2.34.02.26,0,.53.06.79.06.29.07.69.46.74.32.04.51-.23.64-.5.2-.4.41-.79.6-1.2.48-1.03.93-2.06,1.67-2.94.41-.49.95-.76,1.53-.56.69.24,1.18,0,1.66-.41,1.01-.87,2.12-1.3,3.48-1.06,1.47.25,2.16-.53,2.79-2.11.14-.36.08-.71-.22-.92-.3-.21-.56.07-.75.26-.69.73-1.53.88-2.46.67-.66-.15-1.17-.59-1.7-.97-.58-.43-1.17-.59-1.82-.17-.4.26-.82.32-1.27.1-.58-.3-1.11-.21-1.6.22-.26.22-.55.41-.83.6-.91.58-2,.35-2.46-.54-.33-.64-.22-1.29.1-1.89.48-.9,1.02-1.78,1.49-2.69.45-.87.34-1.23-.44-1.81-.81-.61-.97-1.22-.57-2.13.3-.69.75-1.26,1.31-1.76,1.21-1.09,2.61-1.95,3.69-3.19.13-.15.49-.21.24-.54-.66-.86-.58-1.1.37-1.66,1.01-.6,2.11-.54,3.22-.61.99-.06,2.02-.07,2.81-.83.31-.29.69-.61.5-1.07-.18-.42-.66-.47-1.09-.48-.83-.02-1.6.29-2.4.43-.53.09-1.04.03-1.39-.35-.81-.88-1.74-.75-2.68-.36-.53.22-1.03.53-1.53.82-.53.31-.83.77-.85,1.42-.03.86-.5,1.35-1.32,1.54-.6.13-1.16.35-1.7.63-.87.44-1.48,1.07-1.45,2.15.02.69-.14,1.36-.43,1.99-.51,1.12-1.05,2.23-.96,3.53.03.5-.28.95-.55,1.37-.39.6-.79,1.18-1.19,1.76-.31.44-.46.94-.57,1.46-.03.15-.05.33.14.41.14.06.26-.01.36-.09.14-.11.28-.23.42-.35.27-.23.51-.63.93-.31.39.3.16.68,0,1-.39.78-.76,1.56-.96,2.42-.33,1.43-.28,1.51,1.14,1.46Z"/>
  <path class="cls-2" d="m47.75,62.43c.04-.66.07-1.31.11-1.97.06-.9.07-1.79-.56-2.55-.1-.12-.19-.29-.17-.43.15-1.83-.72-3.61-.29-5.46.08-.33.08-.68.11-1.02.08-.87-.04-1.62-.75-2.28-.9-.84-.82-1.91-.41-3,.32-.86.88-1.62.96-2.57.04-.47,0-.85-.48-1.12-.81-.45-.78-1.23-.54-1.95.35-1.03.51-2.02.1-3.07-.1-.25-.07-.57-.05-.86.06-.89.61-1.3,1.45-1.03.47.15.8.14,1.21-.21.59-.52,1.35-.58,2.07-.22.68.34.64.99.55,1.59-.11.7-.02,1.33.27,1.99.55,1.23.27,2.48-.1,3.7-.29.97-.45,1.95-.34,2.96.08.72.35,1.28,1.03,1.66,1.08.62,1.48,1.94.72,2.91-1.15,1.48-1.53,2.91-.47,4.58.36.58.28,1.27.09,1.92-.2.65-.32,1.35-.63,1.95-.82,1.55-.84,3.18-.65,4.85.08.72-.02,1.42-.23,2.11-.15.48-.37.95-.98,1-.61.06-1.07-.2-1.41-.69-.59-.85-.67-1.81-.6-2.8Zm.82.53c0,.67.09,1.31.52,1.85.13.16.28.33.53.28.25-.05.28-.28.34-.48.27-.83.19-1.67.13-2.51-.1-1.55.09-3.02.78-4.44.72-1.49,1.03-3.04.03-4.58-.49-.76-.42-1.55.04-2.31.27-.45.53-.91.83-1.34.65-.95.56-1.63-.44-2.24-.83-.51-1.11-1.26-1.26-2.15-.2-1.19.08-2.31.4-3.41.38-1.28.48-2.51-.17-3.74-.22-.43-.22-.9-.11-1.39.08-.36.29-.83-.14-1.08-.45-.26-.9-.12-1.28.26-.33.33-.71.5-1.21.39-.99-.22-1.17-.04-.89.97.21.75.39,1.47.11,2.23-.13.34-.17.71-.27,1.07-.14.48-.1.85.43,1.1.46.22.64.66.64,1.18,0,.64-.11,1.25-.36,1.84-.25.58-.49,1.16-.73,1.75-.34.82-.14,1.52.47,2.15.36.37.78.74.76,1.33-.02.82.09,1.66-.09,2.44-.39,1.71.51,3.32.24,5-.02.11.08.25.15.36.61.93.72,1.95.64,3.02-.07.81-.09,1.63-.13,2.44Z"/>
  <path class="cls-2" d="m48.85,22.95c-.11.52-.14.98.8.87.61-.07,1.21.67,1.11,1.48-.21,1.79-.43,3.61-.93,5.33-.44,1.51-2.4,1.72-3.44.51-.26-.3-.5-.57-.9-.73-1.09-.42-1.62-1.67-1.29-2.81.22-.74.59-1.41.95-2.08.28-.52.28-.94.03-1.48-.75-1.58.36-3.28,2.07-3.25,1.13.02,1.64.67,1.6,2.15Zm-.8.03c.04-1.09-.26-1.44-1-1.35-1,.12-1.59,1.13-1.13,2.01.44.84.36,1.58-.11,2.37-.35.58-.66,1.2-.82,1.87-.18.75.13,1.51.82,1.77.53.19.88.52,1.21.95.56.71,1.59.62,2.05-.16.16-.27.25-.58.26-.9.03-1.16.15-2.3.55-3.4.1-.28.1-.63.05-.93-.06-.4-.26-.64-.77-.52-.86.21-1.3-.2-1.2-1.08.03-.26.07-.52.09-.63Z"/>
  <path class="cls-2" d="m141.14,59.73c-.12.17-.19.24-.24.33-1.1,1.78-2.63,2.19-4.51,1.19-.28-.15-.56-.32-.86-.39-1.53-.36-2.42-1.3-2.65-2.86-.02-.13-.06-.25-.1-.45-.38.5-.23,1.06-.36,1.55-.14.54-.31,1.03-.94,1.11-.64.09-1.11-.25-1.31-.8-.53-1.44-1.19-2.81-1.99-4.11-.68-1.09-1.22-2.34-2.46-2.99-.24.28-.05.52.05.74.18.42.28.85.34,1.29.17,1.15-.26,2.28-.14,3.44.03.25-.17.55-.32.79-.33.57-.77,1.03-1.5.92-.75-.11-1.33-.79-1.41-1.6-.04-.34-.06-.69-.02-1.03.08-.76-.16-1.39-.76-1.97-.19.59-.17,1.14-.11,1.7.12,1.07.26,2.14.37,3.22.08.77.07,1.53-.54,2.14-.57.57-1.25.57-1.79-.04-.17-.19-.33-.42-.44-.65-.89-1.88-1.66-3.8-2.11-5.84-.21-.97-.73-1.72-1.55-2.29-.37-.26-.53-.18-.72.16-.38.67-.69,1.36-.76,2.14-.05.63-.27,1.17-.72,1.62-.54.55-.75,1.15-.35,1.93.3.6-1.25,3.71-1.89,3.91-.72.23-1.46-.22-1.59-.99-.05-.31-.05-.63-.03-.95.05-.65-.08-1.21-.38-1.81-.57-1.15-.57-2.31.14-3.46,1.03-1.65,1.51-3.52,1.98-5.39.19-.77-.14-1.51-.34-2.24-.17-.64-.19-1.25.04-1.86.39-1.03.8-2.06,1.22-3.08.29-.69.8-1.12,1.58-1.1.5.01.71-.23.82-.67.16-.66.33-1.33.49-1.99.18-.79.54-1.48,1.08-2.08.83-.92,1.91-.71,2.32.46.13.39.24.82.23,1.23-.05,2.52.52,4.98,1.05,7.39.39,1.78.39,3.74,1.52,5.33.06.08.11.17.18.28.85-1.13,1.37-2.3,1.13-3.74-.31-1.84.17-3.67.12-5.52-.03-1.01,1.09-1.43,1.99-.83.65.44.94,1.11,1.13,1.84.12.48.23.97.33,1.46.15.77.27,1.48,1.39,1.33.55-.07.93.42,1.14.95.12.31.24.63.36.93,1.02-2.35,1.72-4.78,2.92-7,.27-.51.61-.97,1.25-.93.67.05.98.56,1.17,1.14.31.94.18,1.9-.05,2.81-.44,1.77-.66,3.56-.88,5.37-.19,1.54-.63,3.05-.91,4.59-.05.27-.1.51.15.77.37-.37.51-.83.58-1.31.1-.71.36-1.31.99-1.71.22-.14.42-.34.55-.56.79-1.3,2.07-2.06,3.26-2.91.51-.36.81-.75.93-1.37.23-1.21.53-2.39,1.03-3.55.66-1.54.97-3.21,1.18-4.86.18-1.38.74-2.58,1.47-3.7.5-.77,1.44-.97,2.16-.61.67.34.9.96.67,1.9-.33,1.32-.87,2.59-1.05,3.96-.08.58-.04,1.09.28,1.58.52.8.59,1.62.32,2.56-.47,1.61-1.21,3.23-1.2,4.89.02,2.75-.56,5.57.77,8.22.52,1.03.76,2.19.92,3.34.1.68.02,1.33-.41,1.87-1.08,1.35-2.97.87-3.62-.93-.25-.69-.37-1.42-.58-2.24Zm-7.58-3.45c.03.58.1,1,.07,1.42-.06.94.38,1.63,1.17,1.97.89.38,1.77.81,2.68,1.12,1.19.41,2,.04,2.65-1.05.22-.36.4-.74.57-1.12.12-.27.24-.57.58-.56.39.01.48.37.55.67.07.31.09.63.18.93.26.89.16,1.93.9,2.64.34.33.7.8,1.29.5.6-.31.86-.85.77-1.51-.07-.52-.2-1.03-.31-1.55-.28-1.3-1.15-2.42-1.29-3.72-.23-2.22-.26-4.46-.12-6.69.1-1.47.63-2.87,1.04-4.28.21-.76.58-1.59.1-2.29-.75-1.11-.6-2.23-.37-3.4.21-1.06.64-2.06.92-3.09.1-.35.12-.72-.23-.92-.39-.22-.77-.1-1.08.21-.32.32-.47.75-.68,1.15-.87,1.68-.79,3.61-1.36,5.38-.19.58-.24,1.24-.51,1.8-.51,1.05-.87,2.14-1.01,3.3-.13,1.06-.66,1.8-1.63,2.35-.85.49-1.64,1.15-2.29,1.89-.94,1.08-2.11,2.06-2.21,3.67,0,.15-.15.28-.2.43-.09.3-.17.61-.21.76Zm-12.43-1.84c-.03-.9.03-1.73-.41-2.41-.59-.92-.82-1.91-.96-2.96-.18-1.35-.9-2.59-.94-3.98-.03-.9-.13-1.79-.37-2.65-.24-.82-.34-1.64-.32-2.49.02-.63-.03-1.26-.23-1.87-.2-.58-.52-.62-.92-.2-.42.45-.72.97-.86,1.57-.18.74-.33,1.49-.54,2.22-.16.58-.46,1.16-1.14,1.14-.99-.03-1.33.55-1.58,1.33-.15.47-.3.97-.54,1.4-.61,1.05-.57,2.09-.16,3.19.2.54.38,1.12.2,1.7-.63,2.03-1.1,4.12-2.25,5.95-.5.8-.45,1.6,0,2.39.37.66.56,1.36.46,2.12-.03.23-.01.47,0,.71.02.22.11.44.34.48.26.05.36-.19.43-.38.2-.61.56-1.13.92-1.65.23-.33.3-.67.13-1.04-.38-.82-.14-1.53.4-2.19.46-.56.74-1.14.81-1.91.09-.98.61-1.84,1.28-2.57.29-.31.67-.52,1.04-.2.88.74,1.79,1.44,2.1,2.67.51,2,1.1,3.99,2.06,5.84.18.36.29.93.81.83.49-.1.58-.62.57-1.09,0-.13,0-.27-.01-.39-.32-1.87-.54-3.75-.31-5.54Zm3.8-2.45c0-.34,0-.71,0-1.08,0-.3.13-.53.41-.6.28-.07.42.17.54.38.25.46.43.98.87,1.31,1,.75,1.55,1.85,2.15,2.88.74,1.27,1.5,2.54,1.92,3.97.07.22.16.48.46.47.34,0,.29-.31.34-.52.27-1.16.4-2.33.29-3.52-.03-.34-.09-.68.02-1.02.42-1.34.25-2.81.91-4.1.06-.11.03-.26.04-.39.1-1.6.24-3.19.67-4.75.23-.83.45-1.69.34-2.57-.05-.38-.08-.91-.51-.99-.47-.1-.46.48-.65.76-.16.24-.32.49-.43.76-.71,1.78-1.47,3.54-2.05,5.36-.19.59-.05,1.21-.13,1.81-.04.28.07.72-.29.8-.29.06-.44-.32-.61-.55-.49-.7-.74-1.51-.99-2.31-.15-.49-.43-.78-.98-.68-.7.12-1.09-.25-1.35-.84-.27-.61-.38-1.25-.51-1.9-.13-.67-.27-1.35-.76-1.88-.19-.21-.42-.34-.7-.24-.28.11-.23.38-.23.61-.01.58.05,1.17-.03,1.74-.18,1.21-.17,2.4-.02,3.61.15,1.17-.17,2.23-.82,3.22-.63.95-.57,2.02.02,2.91.53.81.73,1.61.67,2.52-.03.45-.02.9.31,1.27.28.32.59.37.88.07.33-.35.63-.8.5-1.27-.15-.55-.06-1.04.07-1.55.1-.39.08-.77.02-1.17-.12-.83-.59-1.59-.38-2.49Z"/>
  <path class="cls-3" d="m166.48,20.27c.02.6-.18,1.16-.13,1.74.02.31-.05.68.33.82.38.14.55-.17.77-.41.3-.33.45-.77.93-1.09.1.41.16.78.28,1.13.12.35.26.73.72.73.43,0,.66-.3.8-.66.16-.44.34-.89.42-1.35.17-1,.61-1.87,1.31-2.56.81-.8,1.18-1.8,1.24-2.83.08-1.41.72-2.5,1.48-3.59.29-.41.59-.81.88-1.21.18-.26.33-.56.74-.42.46.16.49.52.42.9-.22,1.25-.64,2.44-1.08,3.62-.68,1.84-1.14,3.72-1.12,5.7,0,.68.21,1.27.75,1.66.92.67,1.08,1.58.93,2.59-.11.76-.1,1.52-.14,2.29-.04.79.1,1.5.64,2.13.61.7.53,1.58.42,2.41-.12.92-.23,1.78.84,2.27.38.17.38.6.38.98-.02,1.11-.02,2.21-.06,3.32-.09,2.35.33,4.67.57,7,.12,1.14.8,2.2.61,3.43-.06.36.24.65.61.73.4.08.71-.1.91-.47.59-1.06.78-2.24.95-3.4.2-1.46.26-2.94.18-4.42-.13-2.59.5-5.07,1.23-7.52.26-.87.76-1.61,1.4-2.26.96-.98,1.44-2.16,1.86-3.49.97-3.11,1.27-6.4,2.48-9.44.19-.47.39-.93.72-1.3,1.93-2.21,3.13-4.72,3.18-7.71.01-.74.38-1.3.84-1.82,1-1.15,2.01-2.3,2.54-3.77.12-.34.37-.64.66-.88.19-.16.35-.45.66-.31.28.13.31.43.33.68.07.71-.25,1.33-.49,1.97-.79,2.06-1.89,4.01-2.47,6.15-.88,3.23-1.23,6.52-.28,9.81.78,2.71,1.12,5.46,1.05,8.26-.03,1.24.21,2.4.71,3.52.44.99.68,2.03.62,3.15-.08,1.36.29,2.71.15,4.08-.05.49.17,1,.51,1.29.84.72.65,1.6.54,2.48-.06.49-.17.99-.3,1.47-.15.58-.15,1.14.04,1.71.61,1.79.28,3.55-.54,5.12-.91,1.74-.96,3.36-.04,5.03.64,1.15.9,2.33.61,3.64-.31,1.39.09,2.61,1.05,3.64.72.77.8,1.68.6,2.66-.11.54-.27,1.07-.35,1.62-.17,1.14-.16,2.29.56,3.26,1.08,1.45,1.54,3.08,1.59,4.86.02.66.33,1.28.28,2.11-.4-.38-.54-.72-.65-1.1-.08-.29-.11-.67-.51-.72-.4-.05-.61.24-.81.53-.07.11-.16.2-.31.4-.15-.63-.11-1.17,0-1.68.3-1.29,0-2.3-1.26-2.89-1.33-.62-1.8-1.7-1.64-3.09.12-1.04-.04-1.86-1.17-2.26-.52-.19-.59-.73-.56-1.21.07-1.1.17-2.21.54-3.25.32-.91.24-1.73-.38-2.44-2.39-2.73-2.83-5.96-2.48-9.4.08-.8-.04-1.58-.31-2.33-.85-2.35-1.07-4.66-.1-7.07.46-1.13.66-2.38,1.08-3.54.38-1.04.16-2.08-.67-2.75-1.49-1.19-1.86-2.71-1.67-4.48.04-.42,0-.84,0-1.26,0-.3-.07-.62-.38-.72-.36-.12-.6.16-.77.43-.25.4-.45.83-.58,1.29-.44,1.65-.73,3.34-.92,5.04-.05.45-.04.89.07,1.33.63,2.39,0,4.53-1.54,6.33-1.23,1.45-1.93,3.02-1.82,4.88.13,2.18-.38,4.15-1.4,6.06-.58,1.08-.68,2.31-.69,3.53,0,.84,0,1.69-.01,2.53,0,.36-.08.7-.44.86-.42.18-.71-.1-.95-.37-.73-.81-.82-1.85-.97-2.86-.06-.44-.03-.9-.08-1.34-.13-1.05-.63-1.58-1.68-1.8-1.01-.22-1.39-.64-1.43-1.67-.02-.6-.02-1.2.12-1.81.13-.59.12-1.2-.13-1.78-.3-.71-.45-1.45-.46-2.23,0-.66-.15-1.33-.45-1.91-1.01-1.9-1.39-3.95-1.61-6.06-.12-1.16-.49-2.22-1.65-2.79-.16-.08-.36-.23-.39-.37-.23-1.15-1.04-1.9-1.77-2.72-.51-.57-.49-1.31-.4-2.03.14-1.08.14-2.15.1-3.23-.02-.55-.12-1.1-.75-1.24-.6-.13-.96.29-1.14.78-1.07,3.01-2.45,5.97-1.46,9.31.39,1.33.42,2.69.04,4.05-.72,2.62-.64,5.38-1.27,8.02-.47,1.98-.63,3.94-.33,5.95.15,1.04-.26,1.79-1.04,2.56-1.73,1.72-2.72,3.8-2.06,6.34.29,1.13.45,2.27.43,3.43,0,.64-.13,1.25-.42,1.83-.71,1.4-1.02,2.93-1.3,4.45-.12.64-.37,1.2-.64,1.77-.08.16-.14.37-.37.36-.25-.01-.35-.24-.41-.43-.1-.32-.17-.67-.18-1-.04-1.45-.09-2.9.08-4.34.12-1.04.06-2.05-.4-3.01-.23-.48-.2-.96-.07-1.46.68-2.52.47-4.93-.44-7.41-.82-2.27-.74-4.66.98-6.62,2.49-2.83,2.81-6.11,2.19-9.62-.54-3.06-.48-6.05.69-9,1.03-2.59,1.47-5.37,2.18-8.06.14-.54.1-1.1.12-1.65.04-1.5.48-2.87,1.38-4.08Z"/>
  <path class="cls-3" d="m263.98,21.46c.61,1.16,1.18,2.29,1.66,3.47,1.13,2.81,1.49,5.85,2.74,8.62.22.49.38,1.03.81,1.33,1.13.78,1.26,1.95,1.3,3.14.05,1.47.02,2.95,0,4.43,0,.58.1,1.1.49,1.54.05.06.13.12.14.19.13,1.38,1.14,2.32,1.74,3.46.54,1.03-.06,1.94-.35,2.88-.09.3-.29.56-.42.85-.1.21-.23.44,0,.65.23.22.49.16.73.02.66-.4,1.28-.86,1.65-1.55.49-.93,1.27-1.34,2.26-1.51.94-.16,1.77-.66,2.66-.94,2.06-.65,3.84-1.75,5.63-2.89.8-.51,1.65-.94,2.3-1.65.76-.84,1.65-1.44,2.72-1.83.79-.29,1.52-.71,2.29-1.06.2-.09.46-.29.63-.01.13.21-.09.39-.24.53-2.24,2.03-4.28,4.3-7.04,5.68-.77.38-1.29,1.07-1.94,1.6-1.06.85-2.37,1.25-3.49,1.99-.71.47-1.18,1.05-1.49,1.86-.68,1.78-2.13,2.79-3.84,3.38-1.5.52-2.84,1.21-3.96,2.35-.52.53-.99,1.1-1.28,1.78-.32.76-.88,1.29-1.54,1.76-1.71,1.22-3.43,2.45-5.12,3.69-.67.49-1.31,1.11-1.45,1.92-.25,1.46-1.17,2.44-2.1,3.44-1.21,1.31-2.14,2.8-2.86,4.42-.16.37-.36.73-.69.94-1.49.96-2.54,2.36-3.68,3.66-1.58,1.8-3.45,2.92-5.88,3.15-1.68.16-3.06,1.03-4.26,2.21-.84.83-1.72,1.62-2.59,2.43-.02.02-.04.04-.06.05-.41.27-.84.79-1.31.38-.45-.39,0-.87.24-1.26.88-1.42,2.34-2.25,3.49-3.39,1.17-1.17,2.66-1.87,4.1-2.64.79-.43,1.42-.98,1.81-1.8.49-1.03,1.23-1.82,2.28-2.3.24-.11.6-.21.65-.53.22-1.33,1.35-1.88,2.22-2.65.85-.75,1.66-1.54,2.39-2.41.56-.67.66-1.35.14-2.09-.73-1.05-.61-1.21.22-2.2.87-1.04,2-1.78,3.17-2.45.27-.16.55-.31.81-.49.63-.44.61-.88-.05-1.24-.2-.11-.5-.14-.49-.44.01-.34.29-.48.58-.57,1.51-.53,3.06-.95,4.55-1.57.78-.33,1.09-.78.96-1.64-.22-1.37-.08-2.71.47-4.02.64-1.51,1.03-3.09,1.3-4.71.18-1.07.04-1.3-1.01-1.48-.56-.1-.68-.48-.72-.97-.09-1.2-.03-2.43-.41-3.6-.11-.35-.19-.72-.35-1.05-.66-1.38-.97-2.81-.96-4.35.01-1.63.19-3.29-.17-4.89-.26-1.17-.5-2.31-.43-3.5.02-.45.04-.82.58-.98.45-.13.53-.53.53-.96-.03-1.81.19-3.64-.18-5.44-.04-.21-.14-.46.15-.73Z"/>
  <path class="cls-3" d="m235.99,62.3c.16-1.23-.29-2.4-1.34-3.36-.9-.83-1.36-1.99-2.09-2.96-.49-.65-.95-1.34-1.62-1.82-.61-.44-.73-1.03-.72-1.73.01-.89-.01-1.78-.07-2.67-.03-.57-.18-1.17-.88-1.21-.62-.04-.92.45-1.1.97-.19.55-.34,1.11-.23,1.71.21,1.2.1,2.42.16,3.63.05.9-.21,1.73-.59,2.51-.47.96-.79,1.94-.69,3.03.05.55-.04,1.1-.16,1.65-.1.46-.35.79-.86.75-.55-.04-.63-.47-.54-.87.38-1.75-.13-3.5,0-5.25.03-.39.16-.77.26-1.15.23-.96.2-1.87-.33-2.74-.48-.79-.47-1.58,0-2.39.49-.86.85-1.75.56-2.78-.12-.43-.32-.75-.73-.96-.97-.5-1.22-1.08-1.13-2.18.08-1.01.48-1.94.63-2.93.13-.82.1-1.61-.02-2.43-.23-1.57.12-3.13.21-4.69.05-.83.25-1.65.11-2.5-.07-.44-.11-.95.48-1.09.63-.15.79.31.93.8.17.6.17,1.21.13,1.8-.11,1.34.57,2.56.5,3.89-.01.24.18.43.43.52.3.11.43-.12.56-.32.15-.24.33-.48.43-.75.56-1.62,1.8-2.76,2.86-4.03.44-.53.98-.71,1.67-.25.81.55,1.73.71,2.71.55.67-.11,1.36-.2,1.9.44.36.42.49.81.16,1.27-.51.71-.26,1.24.13,1.98.69,1.33,2.04,2.29,2.14,3.95.09,1.53-1.06,3.34-2.56,3.71-.89.22-1.67.58-2.36,1.19-.55.49-1.23.8-1.92,1.07-.54.21-.96.52-.99,1.19-.03.68.23,1.23.81,1.5,1.27.59,1.96,1.72,2.72,2.78.41.57.39,1.26.25,1.91-.16.73.02,1.35.4,1.95.15.24.31.49.47.73.9,1.29,1.42,2.69,1.28,4.3-.05.52.01,1.06-.05,1.58-.19,1.53.21,2.91.96,4.23.33.58.49,1.22.58,1.87.06.38.06.75-.34.96-.42.22-.78.03-1.08-.25-.52-.48-.8-1.12-.91-1.8-.17-1.15-.43-2.28-.94-3.33-.28-.58-.17-1.19-.18-1.97Zm-8.21-20.74c-.05.53.22.93.57,1.26.7.65,1.3,1.35,1.7,2.25.25.56.75.89,1.43.69,1.36-.4,2.92-2.73,2.53-4.08-.45-1.56-.19-2.65,1.23-3.53.77-.48.54-1.27-.34-1.57-2.31-.77-4.15.08-5.05,2.36-.18.46-.42.82-.93.98-.79.24-1.04.9-1.13,1.64Z"/>
  <path class="cls-3" d="m248.79,51.67c.19,1.3.22,2.68-.45,3.99-.31.61-.03,1.25.05,1.86.16,1.15.12,2.23-.6,3.23-.46.64-.5,1.44-.52,2.2-.05,1.98-.36,3.93-.5,5.9-.07.93-.45,1.78-.74,2.65-.22.68-.47,1.34-.53,2.06-.01.15,0,.36-.2.37-.18.02-.24-.17-.31-.31-.31-.66-.4-1.36-.42-2.07-.04-1.62.34-3.18.67-4.75.35-1.64.4-3.29-.19-4.9-.35-.95-.19-1.88.22-2.76.23-.5.27-.92.02-1.42-.53-1.08-1-2.18-.16-3.34.11-.15.09-.41.08-.62-.05-.79.17-1.51.54-2.2.21-.39.4-.8.41-1.26.03-1-.22-1.23-1.17-1.01-.33.08-.61-.01-.9-.18-1.02-.59-2.03-1.21-3.29-1.19-.44,0-.91-.17-.85-.7.06-.51.57-.48.96-.46.56.03,1.03-.12,1.45-.5.41-.37.9-.51,1.46-.49,1.66.07,1.97-.94,1.88-2.1-.09-1.2-.01-2.31.58-3.36.28-.5.34-1.04.31-1.6-.05-1.06.05-2.1.58-3.06.57-1.03.48-2.19.67-3.3.13-.74.42-1.39.79-2.04.58-1,1.08-2.04,1.58-3.08.25-.52.44-1.07.95-1.42.4-.28.83-.4,1.25-.11.42.29.22.72.09,1.07-.4,1.1-1.03,2.07-1.64,3.05-.81,1.29-.77,2.16.3,3.06.69.58.64,1.47.3,2.12-.9,1.73-.83,3.68-1.37,5.48-.33,1.11-.65,2.22-1.07,3.3-.12.32-.23.65-.31.98-.21.97.38,1.58,1.38,1.46.63-.07,1.25-.16,1.88-.23.58-.07.87.12.84.78-.05.99.15,1.09,1.01.63,1.16-.63,2.41-.46,3.3.49.4.42.87.57,1.42.57.66,0,1.25.24,1.77.59.56.37.52.73-.06,1.06-.2.12-.42.23-.65.29-.5.13-.65.48-.49.9.3.77-.26.7-.64.62-.58-.12-1.18-.26-1.68-.65-.75-.58-1.52-.84-2.56-.61-1.03.24-2.17.17-2.99-.76-.27-.31-.64-.46-1.04-.53-.75-.15-1.36.31-1.42,1.08-.03.37,0,.74,0,1.21Z"/>
  <path class="cls-3" d="m203.72,55.5c-.13-1.3.19-2.39.04-3.5-.13-.98-.4-1.89-.96-2.72-.85-1.26-.84-2.33.2-3.44.79-.84.96-1.86,1.11-2.89.23-1.59,1.16-2.61,2.49-3.34.53-.29.91-.67,1.22-1.18.76-1.24,1.62-2.4,2.84-3.24.88-.6,1.85-.74,2.87-.52,1.74.37,3.15,1.28,4.26,2.67.05.06.11.12.13.19.81,2.69,2.06,5.35.43,8.18-.8,1.39-.67,2.69.49,3.89.47.48.81,1.1,1.14,1.7.53.95.52,1.98-.05,2.86-1.43,2.23-2.95,4.42-5.22,5.92-.6.39-1.22.69-1.99.45-.56-.18-1.08.14-1.59.32-1.11.39-1.37.3-1.87-.72-.16-.33-.38-.6-.72-.67-.76-.17-1.4-.58-2.03-1.01-.49-.34-1.03-.34-1.59-.31-.79.05-1.12-.24-1.17-1.03-.03-.6,0-1.21,0-1.62Zm2.71-6.7c.06.88.05,1.79.37,2.64.24.64.65,1.08,1.41,1.05.41-.02.72.15.92.5.4.7.98,1.3,1.12,2.16.07.46.47.79.93.59.61-.27,1.22-.26,1.85-.25.6,0,.92-.35.99-.92.05-.47.08-.97-.14-1.4-.84-1.65-.9-3.22-.11-4.97.63-1.41.33-1.84-.98-2.66-1.59-.99-1.83-1.85-1.02-3.56.1-.21.15-.45.23-.67.16-.46.14-.91-.26-1.23-.4-.32-.86-.29-1.33-.06-1.27.63-2.07,2.01-1.86,3.53.11.86-.15,1.47-.76,2.02-.94.86-1.51,1.89-1.36,3.23Z"/>
  <path class="cls-3" d="m39.01,18.95c0,.29.05.59,0,.87-.29,1.39-.06,2.55,1.14,3.51.71.56.59,1.51.37,2.3-.34,1.22-.44,2.42-.24,3.66.27,1.7-.07,3.25-1.37,4.49-.5.48-.57,1.11-.51,1.76.1,1.12.01,2.15-1.09,2.83-.48.3-.4.88-.48,1.37-.21,1.23-.56,2.39-1.32,3.42-.6.82-1.41,1.17-2.36,1.23-1.14.07-1.95.55-2.36,1.65-.31.85-1.02,1.3-1.77,1.71-.48.26-1.03.52-.95,1.21.06.5,1.02,1.19,1.58,1.15.65-.04.97.39,1.24.83.54.9,1.03,1.84,1.51,2.77.31.59.66.83,1.18.23.33-.37.56-.24.81.1.35.47.58.99.82,1.52.24.54.62.72,1.21.55,1.43-.42,2.3-.06,3.19,1.24.59.85.93,1.82,1.35,2.76.24.55.59.99,1.12,1.28,1.34.73,2.1,1.87,2.41,3.34.3,1.46.88,2.69,2.5,3.14.44.12.64.61.81,1.03.59,1.45,1.61,2.39,3.08,2.98,1.09.44,1.76,1.37,1.74,2.59-.02,1.12.41,1.99,1.22,2.71,2.09,1.87,3.17,4.29,3.76,6.97.19.84.07,1.74.39,2.56.04.1,0,.3-.07.36-.16.12-.3-.04-.39-.16-.29-.44-.58-.88-.84-1.33-.29-.53-.7-.99-1.24-1.17-1.13-.36-1.84-1.09-2.4-2.11-.67-1.21-1.71-2.2-2.23-3.52-.17-.43-.31-.87-.2-1.3.22-.92-.24-1.53-.88-2.03-.47-.37-.98-.72-1.51-1.01-1.23-.65-1.97-1.71-2.55-2.91-.21-.43-.42-.85-.64-1.27-.27-.49-.67-.8-1.25-.85-1.24-.1-2-.8-2.49-1.91-.37-.84-.78-1.67-1.23-2.47-.5-.89-.99-1.02-1.91-.62-.07.03-.14.07-.21.1-1.34.59-1.6.48-2.02-.93-.23-.76-.6-1.46-.96-2.16-.42-.82-.97-1.42-2-1.4-.5.01-.85-.34-1.21-.67-.91-.85-1.26-.86-2.24-.11-.7.54-.93.5-1.38-.33-.59-1.09-1.2-2.16-2.04-3.08-.41-.45-.92-.7-1.48-.55-1.37.39-2.35-.16-3.21-1.13-.21-.24-.45-.45-.67-.67-.43-.45-.91-.92-1.57-.61-.74.34-1.26.91-1.33,1.81-.08,1.06.35,1.96.82,2.84.33.63.37,1.18.01,1.78-.38.65-.36,1.29.03,1.94.71,1.21.81,2.52.06,3.68-1.07,1.66-.87,3.15.3,4.56.95,1.15,1.06,2.28.53,3.65-.51,1.33-.34,2.71.51,3.91.41.59.4,1.11.03,1.67-.12.17-.21.39-.37.51-1.39,1.04-1.43,2.46-1.16,3.98.07.42.09.84-.04,1.25-.16.48-.39.51-.73.15-.45-.48-.69-1.05-.74-1.7-.01-.24-.03-.48,0-.71.21-1.41-.19-2.54-1.47-3.28-.56-.33-.51-.86-.4-1.33.26-1.14-.08-2.26-.07-3.38,0-.19-.08-.45-.22-.58-1.27-1.22-1.46-3-2.25-4.47-.57-1.04-.51-2.47.22-3.63.54-.85.57-1.7.26-2.64-.34-1.04-.83-1.99-1.52-2.83-.36-.44-.42-.91-.2-1.4.86-1.94.7-3.91.18-5.88-.25-.96-.57-1.92-.96-2.84-.32-.77-.38-1.54-.18-2.31.18-.74-.03-1.35-.44-1.93-.2-.28-.44-.52-.66-.78-.66-.81-1.06-1.65-.77-2.76.2-.77.09-1.58-.34-2.29-.2-.33-.29-.67-.24-1.05.06-.43.01-.84-.23-1.21-.31-.48-.13-.96,0-1.45.14-.56.29-1.12.39-1.69.27-1.59-.31-2.88-1.44-3.98-.49-.48-.95-.99-1.36-1.53-.94-1.27-.78-2.68-.4-4.08.24-.89.42-1.79.39-2.72-.04-.92-.32-1.7-1.08-2.27-1.01-.76-1.5-1.74-1.32-3.02.12-.84.35-1.02,1.12-.71.79.33,1.32,0,1.79-.57.84-1.02,1.87-1.76,3.1-2.22.39-.14.78-.21,1.16-.06,2.09.89,3.84.18,5.48-1.12.84-.67,1.7-1.34,2.56-1.98,1.99-1.47,4.35-1.52,6.47-.21,1.74,1.08,3.7,1.76,5.39,2.96.44.32,1.04.28,1.61.19,1.59-.25,1.76-.11,1.88,1.51.09,1.3.88,1.83,2.1,1.44,2.38-.76,3.46.04,3.43,2.56,0,.11,0,.21,0,.32h-.03Zm-22.3,25.42c-.02.46,0,.9.5,1.15.5.25.84-.03,1.2-.32,1.09-.89,1.43-.87,2.59.1.81.68,1.27.74,1.95-.06,1.24-1.45,2.73-2.32,4.63-2.58.96-.13,1.59-.75,1.92-1.67.2-.55.38-1.12.34-1.69-.14-1.78,1.09-2.9,2.06-4.05,1.1-1.3,1.42-3.14.35-4.48-.42-.52-.39-.91.05-1.37.7-.72.72-1.06.06-1.81-.53-.62-1.13-1.18-1.69-1.77-.41-.44-.64-.86-.43-1.55.32-1.02-.36-1.76-1.02-2.4-.54-.53-1.13-.16-1.68.09-.73.33-1.21.21-1.72-.44-.33-.42-.53-.91-.71-1.4-.2-.57-.57-.79-1.15-.72-.78.09-1.57.23-2.35.01-1.6-.45-2.87.06-3.99,1.22-1.06,1.11-2.33,1.52-3.87,1.11-.92-.24-1.4.06-1.7.95-.38,1.15-.43,2.28.52,3.23.26.26.47.53.36.9-.27.99-.1,1.98-.04,2.98.03.59.23,1.03.73,1.4.9.67,1.26,1.82.95,2.78-.39,1.2-.19,1.87.83,2.56.61.41.9.93.85,1.66-.03.39,0,.79-.07,1.18-.13.79.12,1.42.81,1.81.57.32.63.7.33,1.24-.33.6-.63,1.22-.61,1.93Z"/>
  <path class="cls-3" d="m78.18,67.77c-1.36-1.57-.95-3.24-.32-4.81.81-2.04.86-4.22,1.33-6.31.15-.66.16-1.36.21-2.04.04-.56.01-1.09-.41-1.55-.37-.4-.18-.85.06-1.24.81-1.28.81-2.75.94-4.18.04-.39.04-.77.19-1.15.28-.69.38-1.42.3-2.17-.03-.3-.11-.57-.42-.7-.34-.14-.62-.03-.85.23-.57.62-1.13,1.25-1.7,1.87-.2.22-.38.6-.75.41-.37-.19-.43-.58-.36-.96.14-.78.34-1.56.72-2.25.56-1.02.8-2.1.88-3.24.12-1.68.9-3.18,1.28-4.79.67-2.82,1.27-5.65.86-8.58-.09-.62-.22-1.24-.28-1.87-.04-.37,0-.78.31-1.01.35-.26.62.05.9.26.37.27.74.24,1.07-.07.1-.09.18-.19.27-.29.31-.34.56-.89,1.12-.7.56.19.52.78.58,1.28.16,1.36-.25,2.61-.78,3.82-.33.76-.47,1.49-.06,2.27.2.38.2.81.2,1.24,0,.76.07,1.46.43,2.2.43.87.34,1.95-.17,2.75-.9,1.41-.31,2.81-.27,4.22.01.39.36.47.63.23,1.55-1.38,3.78-1.76,5.11-3.48.39-.5,1-.72,1.7-.68.89.05,1.41-.61,1.98-1.15,1.99-1.91,3.96-3.84,6.4-5.2.53-.3,1.07-.57,1.67-.71.23-.05.57-.15.69.17.11.29-.1.52-.34.64-.8.43-1.41,1.08-2.08,1.67-.54.48-1.01.99-1.3,1.66-.58,1.36-1.81,2.04-3.02,2.65-1.25.63-2.11,1.58-2.39,2.87-.66,2.96-2.96,3.98-5.43,4.79-1.57.52-2.29,2.22-1.44,3.63,1.17,1.93,2.38,3.82,3.72,5.64.68.93,1.5,1.51,2.63,1.69,1.25.21,1.66.68,1.77,1.93.09,1.07.37,2.06,1.04,2.93.8,1.04,1.09,2.24,1.21,3.53.28,2.93,1.2,5.7,2.21,8.44.29.79.52,1.6.56,2.45,0,.25.12.61-.17.71-.34.12-.47-.26-.64-.48-.15-.21-.25-.46-.36-.7-.15-.32-.19-.84-.67-.71-.42.12-.35.57-.27.95.14.7.11,1.42.08,2.13-.01.29,0,.63-.4.65-.43.02-.42-.33-.42-.61-.04-1.81-.81-3.47-1.12-5.22-.06-.34-.31-.67-.52-.97-.82-1.17-1.5-2.4-1.87-3.8-.31-1.16-.87-2.21-1.84-2.97-.72-.56-1.02-1.32-1.1-2.19-.18-1.81-1.05-3.35-1.94-4.87-.03-.05-.05-.1-.1-.12-.82-.49-1.17-1.32-1.58-2.13-.38-.74-1.26-.79-1.76-.14-.38.49-.68.83-1.41.58-.58-.2-.83.36-.92.84-.29,1.5-.58,3-.82,4.5-.26,1.67-.64,3.28-1.43,4.81-.46.89-.47,1.99-1.07,2.86-.11.17-.19.35-.29.52Z"/>
  <path class="cls-3" d="m57.54,57.53c-1.42.04-1.47-.03-1.14-1.46.2-.86.57-1.64.96-2.42.16-.32.39-.7,0-1-.41-.32-.66.08-.93.31-.14.12-.28.24-.42.35-.1.08-.22.16-.36.09-.18-.09-.17-.27-.14-.41.11-.52.26-1.02.57-1.46.41-.58.81-1.17,1.19-1.76.27-.42.59-.88.55-1.37-.09-1.3.45-2.41.96-3.53.29-.63.45-1.3.43-1.99-.03-1.08.58-1.7,1.45-2.15.54-.28,1.1-.5,1.7-.63.82-.18,1.29-.68,1.32-1.54.02-.64.32-1.1.85-1.42.5-.29.99-.6,1.53-.82.95-.39,1.87-.51,2.68.36.35.38.86.45,1.39.35.8-.14,1.57-.45,2.4-.43.43,0,.91.06,1.09.48.2.46-.19.77-.5,1.07-.79.76-1.82.77-2.81.83-1.1.06-2.2,0-3.22.61-.95.56-1.03.8-.37,1.66.25.32-.1.38-.24.54-1.08,1.24-2.48,2.1-3.69,3.19-.56.5-1.01,1.07-1.31,1.76-.4.91-.23,1.53.57,2.13.78.58.89.94.44,1.81-.47.91-1,1.79-1.49,2.69-.32.61-.44,1.26-.1,1.89.46.89,1.55,1.12,2.46.54.29-.18.58-.37.83-.6.49-.43,1.02-.51,1.6-.22.45.23.86.17,1.27-.1.65-.42,1.24-.26,1.82.17.53.39,1.04.82,1.7.97.93.21,1.77.06,2.46-.67.18-.19.45-.48.75-.26.3.21.36.56.22.92-.63,1.58-1.32,2.36-2.79,2.11-1.36-.23-2.47.2-3.48,1.06-.47.41-.97.64-1.66.41-.59-.2-1.12.07-1.53.56-.74.88-1.2,1.92-1.67,2.94-.19.4-.4.8-.6,1.2-.14.27-.32.54-.64.5-.4-.05-.4-.45-.46-.74-.06-.25-.04-.52-.06-.79-.06-.92-.26-1.77-1.09-2.34-.37-.26-.52-.63-.46-1.1.23-1.81-.27-2.36-2.06-2.31Z"/>
  <path class="cls-3" d="m48.57,62.96c.04-.81.06-1.63.13-2.44.09-1.08-.03-2.1-.64-3.02-.07-.11-.17-.25-.15-.36.27-1.68-.63-3.29-.24-5,.18-.78.07-1.63.09-2.44.01-.59-.41-.96-.76-1.33-.61-.64-.81-1.33-.47-2.15.24-.58.48-1.17.73-1.75.25-.59.37-1.2.36-1.84,0-.52-.18-.96-.64-1.18-.53-.25-.57-.62-.43-1.1.1-.35.15-.73.27-1.07.28-.77.1-1.48-.11-2.23-.29-1.01-.1-1.19.89-.97.5.11.89-.06,1.21-.39.38-.38.83-.53,1.28-.26.43.25.22.73.14,1.08-.12.49-.12.96.11,1.39.65,1.23.55,2.46.17,3.74-.33,1.1-.61,2.22-.4,3.41.15.9.43,1.64,1.26,2.15,1,.61,1.09,1.29.44,2.24-.3.43-.56.89-.83,1.34-.46.76-.53,1.56-.04,2.31,1.01,1.54.69,3.09-.03,4.58-.69,1.43-.88,2.89-.78,4.44.06.84.14,1.68-.13,2.51-.07.2-.09.43-.34.48-.25.05-.4-.12-.53-.28-.43-.54-.53-1.19-.52-1.85Z"/>
  <path class="cls-3" d="m48.05,22.98c-.02.11-.06.37-.09.63-.09.88.34,1.29,1.2,1.08.51-.13.71.11.77.52.05.3.05.65-.05.93-.4,1.1-.52,2.24-.55,3.4,0,.32-.1.63-.26.9-.46.78-1.49.87-2.05.16-.33-.42-.68-.75-1.21-.95-.69-.25-1-1.02-.82-1.77.16-.67.47-1.29.82-1.87.47-.79.55-1.53.11-2.37-.46-.88.13-1.89,1.13-2.01.75-.09,1.04.26,1,1.35Z"/>
  <path class="cls-3" d="m133.56,56.27c.04-.15.11-.46.21-.76.05-.15.19-.28.2-.43.1-1.61,1.27-2.59,2.21-3.67.65-.74,1.44-1.4,2.29-1.89.97-.55,1.5-1.29,1.63-2.35.14-1.16.5-2.25,1.01-3.3.27-.56.32-1.22.51-1.8.58-1.77.49-3.7,1.36-5.38.21-.4.36-.83.68-1.15.31-.31.69-.43,1.08-.21.36.2.33.57.23.92-.29,1.04-.71,2.03-.92,3.09-.23,1.17-.39,2.29.37,3.4.48.7.11,1.54-.1,2.29-.4,1.42-.94,2.81-1.04,4.28-.14,2.23-.11,4.47.12,6.69.13,1.3,1.01,2.42,1.29,3.72.11.51.24,1.03.31,1.55.09.66-.17,1.2-.77,1.51-.59.3-.94-.17-1.29-.5-.74-.72-.64-1.75-.9-2.64-.09-.3-.1-.62-.18-.93-.07-.31-.16-.66-.55-.67-.34-.01-.46.29-.58.56-.18.38-.36.76-.57,1.12-.65,1.09-1.46,1.46-2.65,1.05-.91-.31-1.79-.75-2.68-1.12-.8-.33-1.23-1.03-1.17-1.97.03-.42-.04-.84-.07-1.42Zm7.72-2.44c-.02-.31,0-.64-.06-.94-.11-.55-.28-1.1-.88-1.3-.59-.2-1.06.05-1.48.48-.24.24-.49.48-.78.65-1.27.71-2.11,2.33-1.92,3.77.17,1.29,1.76,2.27,2.67,1.5,1.26-1.06,2.6-2.2,2.45-4.15Z"/>
  <path class="cls-3" d="m121.13,54.43c-.24,1.79-.01,3.67.31,5.54.02.13.01.26.01.39,0,.47-.08.99-.57,1.09-.52.1-.62-.47-.81-.83-.95-1.85-1.54-3.84-2.06-5.84-.31-1.22-1.23-1.92-2.1-2.67-.38-.32-.76-.11-1.04.2-.68.73-1.19,1.59-1.28,2.57-.07.76-.35,1.35-.81,1.91-.54.65-.78,1.36-.4,2.19.17.37.1.71-.13,1.04-.36.52-.72,1.04-.92,1.65-.06.19-.17.43-.43.38-.23-.04-.33-.26-.34-.48-.02-.24-.03-.48,0-.71.09-.76-.09-1.45-.46-2.12-.45-.79-.5-1.59,0-2.39,1.15-1.83,1.63-3.92,2.25-5.95.18-.58,0-1.16-.2-1.7-.4-1.1-.44-2.14.16-3.19.25-.43.39-.92.54-1.4.25-.78.59-1.36,1.58-1.33.68.02.97-.56,1.14-1.14.21-.73.37-1.48.54-2.22.14-.6.44-1.13.86-1.57.39-.42.72-.39.92.2.2.61.25,1.24.23,1.87-.02.85.08,1.67.32,2.49.25.86.35,1.75.37,2.65.04,1.39.76,2.63.94,3.98.14,1.05.37,2.05.96,2.96.44.68.38,1.51.41,2.41Zm-3.66-9.21c-.05-.21-.08-.47-.17-.72-.2-.53-.57-.89-1.16-.91-.6-.03-.7.48-.84.89-.24.72-.41,1.47-.79,2.14-.38.65-.56,1.35-.71,2.08-.19.95.22,1.38,1.15,1.15.47-.11.83-.06,1.25.21.79.52,1.38.21,1.47-.73.03-.34.08-.71-.02-1.02-.34-1-.41-2-.17-3.08Z"/>
  <path class="cls-3" d="m124.93,51.98c-.21.9.25,1.67.38,2.49.06.4.08.78-.02,1.17-.13.51-.23,1-.07,1.55.13.47-.16.92-.5,1.27-.29.3-.61.24-.88-.07-.32-.37-.34-.82-.31-1.27.06-.92-.14-1.72-.67-2.52-.59-.89-.65-1.96-.02-2.91.65-.99.97-2.05.82-3.22-.16-1.21-.17-2.4.02-3.61.09-.57.02-1.16.03-1.74,0-.23-.05-.51.23-.61.28-.11.52.03.7.24.48.53.63,1.21.76,1.88.13.65.24,1.29.51,1.9.26.59.65.96,1.35.84.55-.1.83.19.98.68.25.8.5,1.61.99,2.31.16.24.32.61.61.55.36-.07.25-.52.29-.8.09-.6-.05-1.22.13-1.81.58-1.82,1.35-3.58,2.05-5.36.11-.27.27-.51.43-.76.19-.29.18-.86.65-.76.43.09.46.61.51.99.11.88-.11,1.74-.34,2.57-.43,1.56-.57,3.15-.67,4.75,0,.13.02.28-.04.39-.66,1.29-.49,2.76-.91,4.1-.11.34-.05.68-.02,1.02.12,1.19-.02,2.36-.29,3.52-.05.22,0,.52-.34.52-.3,0-.39-.25-.46-.47-.42-1.43-1.18-2.7-1.92-3.97-.61-1.03-1.16-2.12-2.15-2.88-.44-.33-.61-.84-.87-1.31-.11-.2-.25-.45-.54-.38-.28.07-.42.29-.41.6,0,.37,0,.74,0,1.08Z"/>
  <path class="cls-2" d="m227.78,41.55c.09-.75.34-1.4,1.13-1.64.51-.16.75-.51.93-.98.9-2.28,2.74-3.13,5.05-2.36.88.29,1.11,1.09.34,1.57-1.42.88-1.69,1.97-1.23,3.53.39,1.35-1.16,3.68-2.53,4.08-.68.2-1.18-.13-1.43-.69-.4-.89-1-1.59-1.7-2.25-.35-.33-.61-.73-.57-1.26Zm7.07-4.13c-1.39-.07-2.63-.49-3.62.63-.37.42-.51.97-.75,1.47-.26.54-.61.95-1.21,1.16-.72.25-.9.96-.35,1.49.75.72,1.39,1.5,1.83,2.44.21.45.46.38.81.15,1.36-.93,1.83-2.04,1.51-3.67-.07-.36-.09-.73-.13-1.1-.07-.63.13-1.13.63-1.52.38-.3.76-.62,1.28-1.05Z"/>
  <path class="cls-2" d="m206.43,48.8c-.14-1.33.42-2.37,1.36-3.23.61-.56.87-1.16.76-2.02-.2-1.52.6-2.9,1.86-3.53.48-.23.93-.26,1.33.06.4.31.42.77.26,1.23-.08.22-.13.46-.23.67-.81,1.71-.57,2.57,1.02,3.56,1.31.81,1.61,1.25.98,2.66-.79,1.74-.73,3.32.11,4.97.22.43.19.93.14,1.4-.06.57-.38.93-.99.92-.63-.01-1.24-.02-1.85.25-.47.2-.86-.13-.93-.59-.14-.86-.71-1.45-1.12-2.16-.2-.35-.51-.52-.92-.5-.75.04-1.16-.41-1.41-1.05-.32-.85-.31-1.76-.37-2.64Zm.8.11c.07.52.16,1.28.28,2.03.08.46.32.77.86.72.56-.05.99.25,1.28.66.47.68,1.09,1.3,1.21,2.18.04.31.21.39.5.3.22-.07.46-.14.69-.16,1.35-.12,1.39-.19.96-1.54-.06-.18-.11-.35-.19-.52-.65-1.34-.71-2.63.01-4,.63-1.2.43-1.68-.7-2.5-.87-.63-1.64-1.32-1.59-2.55.03-.78.18-1.51.6-2.18.09-.15.27-.39.05-.57-.16-.13-.35,0-.52.07-.72.29-1.41,1.36-1.31,2.16.17,1.34-.06,2.5-1.2,3.38-.73.56-.91,1.39-.92,2.5Z"/>
  <path class="cls-2" d="m16.71,44.37c-.02-.71.29-1.33.62-1.93.29-.54.24-.92-.33-1.24-.69-.39-.94-1.01-.81-1.81.06-.39.04-.79.07-1.18.06-.73-.24-1.25-.85-1.66-1.02-.69-1.22-1.35-.83-2.56.31-.96-.05-2.11-.95-2.78-.49-.37-.69-.81-.73-1.4-.06-1-.23-1.99.04-2.98.1-.37-.11-.64-.36-.9-.95-.95-.9-2.08-.52-3.23.29-.89.78-1.2,1.7-.95,1.54.4,2.81,0,3.87-1.11,1.11-1.16,2.39-1.67,3.99-1.22.78.22,1.57.08,2.35-.01.58-.07.95.15,1.15.72.18.49.38.98.71,1.4.5.65.98.77,1.72.44.55-.25,1.13-.63,1.68-.09.66.65,1.34,1.39,1.02,2.4-.21.68.02,1.11.43,1.55.56.59,1.16,1.16,1.69,1.77.66.76.64,1.09-.06,1.81-.45.46-.47.84-.05,1.37,1.07,1.34.75,3.18-.35,4.48-.97,1.15-2.2,2.26-2.06,4.05.05.57-.14,1.14-.34,1.69-.33.92-.96,1.54-1.92,1.67-1.9.25-3.39,1.13-4.63,2.58-.68.8-1.14.74-1.95.06-1.15-.97-1.49-.99-2.59-.1-.36.29-.7.57-1.2.32-.49-.25-.52-.69-.5-1.15Zm.86.4c.29-.19.49-.32.68-.45,1.11-.8,1.93-.77,2.99.12.78.65.83.67,1.49-.13,1.02-1.22,2.29-2.03,3.86-2.28,2.24-.37,2.04-.96,2.46-2.7.04-.18.07-.37.06-.55-.12-1.88,1.33-2.93,2.31-4.21.36-.46.61-.85.64-1.43.05-.83-.13-1.55-.69-2.19-.43-.49-.43-1.06-.08-1.61.63-.98.64-.98-.15-1.82-.13-.13-.23-.29-.36-.42-.97-.92-1.86-1.79-1.4-3.4.25-.87-.61-1.34-1.51-.97-1.22.5-2.13.22-2.84-.9-.21-.33-.42-.68-.53-1.05-.14-.49-.38-.62-.87-.51-.65.16-1.32.17-1.96,0-1.34-.37-2.46-.1-3.45.92-1.25,1.3-2.74,1.93-4.57,1.39-.49-.15-.76.07-.9.59-.24.92-.14,1.71.57,2.39.35.34.65.79.49,1.27-.31.91-.14,1.82-.13,2.74,0,.45.17.76.55,1.06,1.11.88,1.55,2.33,1.17,3.52-.34,1.04-.29,1.27.59,1.82.72.45,1.04,1.1,1.06,1.91.02.52-.03,1.05-.06,1.58-.03.42.08.78.43,1.05,1.08.84,1.15,1.21.55,2.46-.26.53-.6,1.06-.41,1.81Z"/>
  <path class="cls-2" d="m141.29,53.83c.15,1.95-1.18,3.1-2.45,4.15-.92.77-2.5-.21-2.67-1.5-.19-1.45.64-3.06,1.92-3.77.29-.16.55-.41.78-.65.42-.43.89-.68,1.48-.48.59.21.77.75.88,1.3.06.31.04.63.06.94Zm-.78.07c-.02-.29-.02-.58-.07-.86-.12-.72-.47-.87-.99-.39-.49.45-.98.87-1.6,1.12-.23.09-.39.28-.41.54-.04.43-.19.8-.38,1.19-.32.64-.03,1.45.59,1.77.7.37,1.06-.1,1.42-.58.23-.32.47-.64.75-.92.51-.52.72-1.15.7-1.86Z"/>
  <path class="cls-2" d="m117.47,45.22c-.24,1.08-.17,2.08.17,3.08.1.31.06.68.02,1.02-.09.94-.68,1.25-1.47.73-.42-.27-.78-.32-1.25-.21-.93.23-1.34-.2-1.15-1.15.15-.72.34-1.43.71-2.08.39-.66.55-1.41.79-2.14.13-.41.24-.92.84-.89.59.03.96.38,1.16.91.09.24.12.51.17.72Zm-.62,4.15c-.28-1.6-.34-3.18-.5-4.78-.54,1.35-1.26,2.57-1.69,3.91-.02.07-.01.16,0,.24,0,.15.08.28.24.21.73-.32,1.3.06,1.96.43Z"/>
  <path class="cls-1" d="m234.85,37.43c-.52.43-.89.75-1.28,1.05-.5.39-.71.9-.63,1.52.04.37.06.73.13,1.1.31,1.63-.15,2.74-1.51,3.67-.35.24-.6.3-.81-.15-.44-.94-1.08-1.72-1.83-2.44-.55-.53-.37-1.24.35-1.49.6-.21.95-.62,1.21-1.16.24-.49.37-1.04.75-1.47.99-1.12,2.23-.7,3.62-.63Zm-3.35,5.23c.52-.57.1-1.13.02-1.7-1.08.65-1.08.95-.02,1.7Z"/>
  <path class="cls-1" d="m207.23,48.91c.02-1.11.2-1.94.92-2.5,1.14-.88,1.37-2.03,1.2-3.38-.1-.8.58-1.87,1.31-2.16.17-.07.36-.2.52-.07.22.18.04.41-.05.57-.42.67-.57,1.39-.6,2.18-.05,1.24.71,1.92,1.59,2.55,1.13.82,1.34,1.3.7,2.5-.72,1.37-.67,2.66-.01,4,.08.16.14.34.19.52.44,1.34.39,1.42-.96,1.54-.23.02-.46.09-.69.16-.29.09-.46.02-.5-.3-.12-.88-.73-1.5-1.21-2.18-.29-.41-.72-.71-1.28-.66-.54.05-.78-.26-.86-.72-.12-.75-.21-1.51-.28-2.03Zm3.41,2.02c-.02-1.09.22-1.99.64-2.84.18-.36.03-.65-.29-.88-.26-.18-.44-.56-.85-.42-.63.22-1.3,1.16-1.34,1.81-.05.91.12,1.67,1.16,1.93.19.05.35.2.68.4Z"/>
  <path class="cls-1" d="m17.57,44.76c-.19-.75.16-1.28.41-1.81.6-1.24.52-1.62-.55-2.46-.35-.27-.45-.62-.43-1.05.03-.53.08-1.05.06-1.58-.02-.81-.34-1.46-1.06-1.91-.88-.55-.93-.78-.59-1.82.38-1.19-.06-2.64-1.17-3.52-.38-.3-.54-.6-.55-1.06-.01-.91-.18-1.82.13-2.74.16-.48-.14-.94-.49-1.27-.71-.69-.81-1.47-.57-2.39.14-.53.4-.74.9-.59,1.84.54,3.32-.09,4.57-1.39.98-1.02,2.11-1.28,3.45-.92.64.17,1.31.16,1.96,0,.48-.12.72.02.87.51.11.37.32.72.53,1.05.71,1.12,1.62,1.4,2.84.9.89-.37,1.75.1,1.51.97-.46,1.61.44,2.48,1.4,3.4.13.13.24.28.36.42.78.84.78.84.15,1.82-.35.55-.35,1.11.08,1.61.55.64.73,1.35.69,2.19-.03.59-.29.97-.64,1.43-.98,1.27-2.43,2.32-2.31,4.21.01.18-.02.37-.06.55-.42,1.74-.22,2.33-2.46,2.7-1.57.26-2.84,1.06-3.86,2.28-.66.8-.72.78-1.49.13-1.06-.89-1.88-.92-2.99-.12-.19.14-.39.26-.68.45Zm-.03-11.62c-.26.84.1,1.47.66,2.06.62.66.86,1.51.87,2.4,0,.85,0,1.65.73,2.29.27.23.37.69.5,1.06.46,1.32,1.14,1.53,2.27.67,1.04-.79,2.16-1.43,3.48-1.59.76-.09,1.07-.52,1.06-1.2-.03-1.9.64-3.49,2.06-4.76.17-.16.3-.36.46-.54.43-.49.43-1,.04-1.51-.65-.84-.75-1.76-.48-2.76.13-.47.06-.83-.32-1.2-.68-.65-1.36-1.35-1.51-2.34-.07-.48-.28-.68-.76-.7-1.52-.09-2.59-.89-3.35-2.17-.17-.29-.41-.45-.77-.46-.44-.02-.9-.04-1.33-.16-.59-.17-.99.03-1.42.41-1.03.88-2.03,1.83-3.5,1.97-.59.06-.8.48-.61,1.04.24.7.2,1.38.07,2.1-.12.65-.01,1.25.44,1.84.79,1.04,1.66,2.09,1.41,3.56Z"/>
  <path class="cls-1" d="m140.5,53.9c.02.72-.19,1.34-.7,1.86-.27.28-.51.6-.75.92-.36.48-.72.96-1.42.58-.61-.33-.9-1.14-.59-1.77.19-.38.34-.76.38-1.19.02-.26.18-.44.41-.54.62-.25,1.11-.67,1.6-1.12.52-.48.87-.33.99.39.05.28.05.58.07.86Z"/>
  <path class="cls-1" d="m116.85,49.37c-.66-.36-1.23-.75-1.96-.43-.16.07-.23-.06-.24-.21,0-.08-.01-.16,0-.24.43-1.34,1.15-2.56,1.69-3.91.16,1.6.22,3.18.5,4.78Z"/>
</svg>